<?xml version="1.0" standalone="no"?>
<!DOCTYPE svg PUBLIC "-//W3C//DTD SVG 20010904//EN"
 "http://www.w3.org/TR/2001/REC-SVG-20010904/DTD/svg10.dtd">
<svg version="1.0" xmlns="http://www.w3.org/2000/svg"
 width="1423.000000pt" height="1423.000000pt" viewBox="0 0 1423.000000 1423.000000"
 preserveAspectRatio="xMidYMid meet">
<metadata>
Created by potrace 1.14, written by Peter Selinger 2001-2017
</metadata>
<g transform="translate(0.000000,1423.000000) scale(0.100000,-0.100000)"
fill="#000000" stroke="none">
<path d="M6808 14225 c-1 -2 -61 -6 -133 -10 -71 -3 -143 -8 -160 -10 -16 -2
-61 -7 -100 -10 -38 -3 -81 -7 -95 -9 -14 -2 -54 -7 -90 -11 -36 -3 -72 -7
-80 -10 -8 -2 -37 -6 -65 -10 -27 -3 -59 -8 -70 -10 -11 -3 -38 -7 -59 -10
-21 -3 -48 -7 -60 -10 -12 -2 -37 -7 -56 -9 -19 -3 -80 -15 -135 -26 -55 -12
-111 -24 -125 -26 -14 -3 -33 -7 -42 -10 -10 -3 -28 -7 -40 -9 -236 -43 -888
-255 -1150 -373 -24 -11 -72 -32 -108 -47 -66 -27 -489 -237 -547 -271 -17
-11 -82 -47 -143 -82 -152 -87 -391 -241 -573 -371 -141 -101 -401 -303 -438
-340 -9 -9 -38 -34 -65 -56 -163 -133 -527 -490 -664 -651 -32 -37 -140 -161
-165 -188 -5 -6 -32 -40 -60 -76 -27 -36 -52 -67 -55 -70 -47 -41 -372 -505
-492 -703 -43 -70 -98 -170 -98 -177 0 -6 -4 -10 -10 -10 -5 0 -10 -4 -10 -10
0 -5 -14 -33 -31 -62 -33 -55 -232 -449 -267 -528 -37 -82 -162 -388 -162
-395 0 -4 -6 -21 -14 -38 -18 -40 -115 -329 -155 -462 -48 -164 -108 -400
-137 -540 -8 -43 -24 -121 -29 -150 -3 -16 -8 -39 -10 -50 -2 -11 -6 -38 -9
-60 -4 -22 -11 -62 -16 -90 -14 -75 -42 -289 -56 -435 -3 -36 -7 -81 -9 -100
-26 -255 -27 -919 -1 -1185 2 -16 6 -65 10 -107 4 -43 9 -92 12 -110 2 -18 6
-55 9 -83 4 -27 8 -61 10 -75 2 -14 7 -45 10 -70 3 -25 8 -52 10 -60 2 -8 7
-35 10 -60 24 -182 114 -582 186 -827 22 -76 43 -147 46 -158 2 -11 8 -29 13
-40 4 -11 27 -76 50 -145 40 -117 133 -363 164 -434 8 -17 42 -92 75 -167 71
-158 227 -465 283 -557 21 -34 38 -64 38 -67 0 -18 344 -554 369 -575 3 -3 21
-27 40 -55 156 -227 456 -578 717 -839 140 -140 247 -242 305 -291 92 -78 154
-132 173 -150 12 -11 41 -36 66 -55 25 -19 50 -39 56 -45 7 -5 24 -19 40 -30
15 -11 50 -38 78 -61 173 -139 532 -378 796 -529 152 -86 619 -325 637 -325 5
0 31 -11 59 -24 98 -47 391 -159 578 -221 259 -86 521 -158 751 -206 33 -7 65
-14 70 -15 6 -1 51 -10 100 -19 50 -9 99 -19 110 -21 11 -2 67 -11 125 -19 58
-9 116 -18 130 -20 14 -2 48 -6 75 -9 28 -4 70 -9 95 -12 25 -3 65 -7 90 -9
25 -2 74 -6 110 -9 36 -3 101 -9 145 -12 181 -16 843 -9 1040 10 17 2 66 6
110 10 44 4 87 9 95 11 8 2 47 7 85 11 39 4 77 8 85 9 82 11 122 18 165 26 28
5 66 11 85 13 129 15 516 105 800 186 222 63 611 204 826 301 27 12 65 28 84
36 19 9 113 54 208 102 95 47 189 94 210 104 53 27 305 172 382 220 170 107
359 234 425 285 6 4 30 22 55 39 40 27 199 150 305 236 257 208 626 565 825
797 30 35 64 74 75 86 199 220 520 668 700 976 36 62 70 120 76 128 103 167
319 616 419 870 29 74 59 149 65 165 24 56 134 390 165 499 25 86 86 322 105
406 9 37 34 159 39 183 31 169 32 174 41 232 3 22 10 65 15 95 5 30 12 78 15
105 3 28 8 61 10 75 11 74 15 112 21 185 4 44 8 94 10 110 26 262 25 922 -1
1190 -18 181 -36 344 -40 365 -3 14 -7 45 -10 70 -5 42 -38 239 -48 285 -3 11
-12 61 -22 110 -21 114 -74 344 -85 370 -5 11 -13 43 -20 70 -43 191 -178 583
-307 890 -63 150 -287 616 -313 650 -4 6 -21 35 -37 65 -40 72 -116 202 -156
265 -58 94 -220 340 -226 345 -4 3 -40 52 -81 110 -40 58 -76 107 -80 110 -3
3 -48 59 -100 125 -52 66 -106 134 -121 150 -15 17 -64 73 -109 125 -103 117
-153 170 -301 319 -165 165 -236 231 -433 401 -16 14 -34 30 -40 35 -6 6 -67
54 -136 108 -69 54 -134 106 -145 115 -28 25 -338 241 -405 282 -30 19 -56 38
-58 42 -2 5 -8 8 -14 8 -6 0 -33 16 -59 35 -27 19 -51 35 -53 35 -2 0 -66 36
-142 81 -266 155 -788 405 -990 474 -27 9 -62 23 -79 30 -35 16 -356 124 -460
154 -283 84 -730 182 -975 215 -62 8 -124 16 -165 21 -22 3 -53 7 -70 9 -16 3
-88 10 -160 16 -71 6 -155 13 -185 16 -61 6 -766 14 -772 9z"/>
</g>
</svg>
