<?xml version="1.0" standalone="no"?>
<!DOCTYPE svg PUBLIC "-//W3C//DTD SVG 20010904//EN"
 "http://www.w3.org/TR/2001/REC-SVG-20010904/DTD/svg10.dtd">
<svg version="1.0" xmlns="http://www.w3.org/2000/svg"
 width="1495.000000pt" height="1495.000000pt" viewBox="0 0 1495.000000 1495.000000"
 preserveAspectRatio="xMidYMid meet">
<metadata>
Created by potrace 1.14, written by Peter Selinger 2001-2017
</metadata>
<g transform="translate(0.000000,1495.000000) scale(0.100000,-0.100000)"
fill="#000000" stroke="none">
<path d="M0 7475 l0 -7475 7475 0 7475 0 0 7475 0 7475 -7475 0 -7475 0 0
-7475z m7803 5685 c368 -22 669 -65 997 -144 416 -100 869 -269 1187 -442 l83
-45 -59 -58 -60 -59 -101 49 c-115 57 -228 109 -235 109 -2 0 -28 11 -57 24
-158 72 -555 206 -738 250 -214 51 -291 67 -430 90 -711 118 -1522 89 -2205
-80 -379 -94 -776 -239 -1097 -400 -37 -19 -71 -34 -75 -34 -10 0 -128 109
-122 113 13 7 247 122 310 151 417 194 984 357 1479 425 393 53 779 71 1123
51z m-4118 -326 c117 -20 290 -67 368 -100 227 -96 472 -245 681 -416 100 -82
331 -320 440 -453 188 -230 362 -525 477 -811 118 -295 158 -487 166 -809 3
-121 3 -218 0 -215 -3 3 -16 51 -27 105 -69 322 -216 579 -441 768 -99 83
-156 118 -330 196 -57 25 -199 57 -294 66 -130 11 -342 -46 -505 -137 -64 -36
-180 -129 -230 -184 -231 -255 -307 -608 -200 -920 69 -199 247 -424 420 -529
36 -22 88 -54 115 -72 85 -56 266 -105 458 -123 141 -14 360 4 502 40 60 15
112 26 114 24 9 -8 -135 -140 -224 -206 -140 -104 -295 -173 -444 -199 -210
-37 -612 41 -851 164 -52 27 -121 62 -152 78 -157 78 -509 386 -653 572 -31
39 -74 95 -96 122 -102 129 -364 609 -422 776 -14 41 -37 106 -51 144 -57 165
-106 401 -126 620 -19 210 -9 531 20 645 5 19 18 76 30 125 32 131 87 238 199
388 46 62 192 172 296 224 116 58 279 104 450 126 75 10 228 6 310 -9z m7961
1 c228 -39 342 -81 499 -184 212 -138 363 -394 421 -709 22 -120 30 -458 15
-619 -23 -237 -79 -503 -135 -638 -7 -16 -19 -48 -26 -70 -22 -69 -138 -322
-179 -393 -21 -37 -57 -103 -80 -147 -72 -138 -281 -416 -424 -565 -299 -309
-610 -502 -967 -598 -177 -48 -292 -66 -425 -65 -119 0 -138 3 -225 32 -131
44 -223 92 -322 166 -94 71 -236 201 -227 209 2 3 32 -1 64 -9 205 -47 477
-62 640 -36 102 17 257 61 315 91 244 125 417 291 521 501 79 159 116 319 105
449 -10 116 -33 234 -56 287 -87 193 -127 251 -257 373 -68 64 -109 92 -202
139 -135 69 -220 96 -350 111 -168 21 -317 -12 -512 -111 -257 -131 -461 -353
-587 -639 -32 -72 -59 -162 -83 -273 -13 -56 -26 -106 -31 -111 -12 -14 -10
232 3 338 19 159 67 390 102 492 84 243 103 288 181 444 92 183 238 418 325
523 148 181 182 219 284 320 328 324 734 569 1085 653 229 56 369 66 528 39z
m-3666 -25 c518 -44 1091 -185 1535 -378 204 -88 305 -136 305 -143 0 -3 -35
-43 -77 -90 -173 -188 -314 -375 -446 -591 -79 -130 -194 -363 -236 -478 -7
-19 -17 -44 -21 -55 -4 -11 -13 -36 -20 -55 -7 -19 -16 -44 -20 -55 -5 -11
-11 -29 -13 -40 -3 -11 -15 -51 -26 -90 -56 -185 -111 -503 -111 -642 0 -29
-4 -53 -9 -53 -4 0 -28 15 -52 33 -137 103 -344 197 -558 252 -257 66 -442 88
-741 89 -297 0 -530 -29 -785 -100 -179 -50 -424 -159 -531 -236 -24 -17 -45
-29 -47 -27 -2 2 -9 60 -15 129 -11 120 -52 354 -86 490 -127 503 -434 1043
-814 1433 -44 46 -72 81 -66 86 5 5 68 36 140 69 552 254 1118 400 1769 457
182 15 719 13 925 -5z m20 -2584 c145 -21 197 -39 282 -96 206 -139 291 -256
539 -745 228 -449 479 -1056 744 -1795 90 -251 99 -274 146 -352 51 -87 105
-148 130 -148 11 0 41 11 67 24 161 80 907 326 1130 371 17 4 32 8 32 11 0 10
-170 279 -233 369 -147 210 -376 473 -574 660 l-96 90 144 -3 c158 -4 271 7
426 44 491 114 937 387 1272 779 130 152 281 358 281 384 0 54 96 -116 206
-364 240 -542 366 -1038 414 -1629 6 -71 13 -133 16 -138 3 -4 39 -8 81 -8
l76 0 -7 128 c-23 411 -94 795 -220 1187 -82 255 -110 328 -218 575 -29 66
-160 325 -200 395 l-34 60 45 88 c25 48 48 87 51 87 8 0 182 -330 245 -465
134 -283 278 -683 353 -980 74 -290 117 -539 157 -920 9 -82 19 -152 21 -155
3 -3 74 -8 157 -11 220 -9 608 -38 707 -53 78 -12 58 -13 -250 -12 -184 0
-400 -3 -480 -7 l-145 -9 4 -111 c5 -178 -20 -513 -60 -797 -68 -475 -203
-959 -386 -1380 -8 -19 -19 -44 -23 -55 -5 -11 -40 -85 -78 -165 -397 -821
-960 -1512 -1707 -2095 -147 -115 -476 -333 -655 -435 -143 -81 -424 -223
-530 -269 -514 -220 -1001 -357 -1580 -445 -108 -17 -399 -46 -457 -46 -32 0
-33 1 -32 43 2 73 12 100 39 108 14 4 81 12 150 19 472 45 1010 169 1485 342
590 214 1148 539 1667 971 519 433 975 983 1316 1587 434 771 671 1662 672
2529 l0 194 -52 -7 c-29 -3 -65 -6 -80 -6 l-28 0 0 -107 c0 -186 -28 -523 -61
-753 -146 -1004 -554 -1872 -1283 -2730 -127 -150 -216 -244 -222 -237 -3 3 6
35 20 71 75 188 163 502 196 701 34 209 50 440 50 728 0 452 -40 782 -146
1200 -28 113 -101 361 -110 375 -1 2 -80 -2 -175 -7 -303 -19 -649 -68 -1054
-151 -401 -82 -581 -130 -910 -239 -246 -82 -371 -129 -525 -198 -55 -25 -10
-17 275 50 354 83 824 160 1135 186 337 28 1001 40 1170 21 93 -10 33 -14
-185 -11 -596 9 -1518 -140 -2145 -345 -197 -64 -269 -95 -199 -87 19 3 84 13
144 23 103 18 247 38 525 75 173 23 578 38 815 31 204 -6 359 -16 353 -22 -2
-1 -89 -5 -193 -9 -291 -9 -453 -23 -780 -66 -334 -44 -465 -67 -635 -110
-157 -40 -409 -118 -440 -136 -23 -13 -15 -13 80 -8 110 6 122 7 345 48 77 14
185 31 240 38 137 18 961 18 1200 1 337 -24 757 -78 515 -67 -480 24 -837 16
-1187 -26 -231 -27 -516 -81 -750 -140 -87 -22 -236 -60 -332 -84 -96 -25
-176 -47 -179 -50 -3 -3 82 -5 189 -5 259 0 685 -22 969 -50 407 -40 472 -49
805 -110 176 -33 281 -57 307 -71 10 -5 29 -9 42 -9 14 0 28 -5 32 -12 5 -8
-2 -9 -27 -4 -379 80 -1178 130 -1460 90 -160 -22 -394 -87 -524 -144 -22 -10
-80 -34 -130 -54 -49 -20 -99 -40 -110 -45 -11 -5 -90 -40 -175 -80 -179 -82
-259 -107 -374 -117 -88 -7 -182 10 -241 44 -38 23 -129 140 -163 211 -17 37
-27 78 -30 126 -5 80 -3 82 69 110 26 9 84 49 130 88 72 62 90 84 127 157 36
71 43 92 38 125 -5 40 -27 65 -57 65 -9 0 -69 -56 -134 -125 -123 -132 -169
-166 -247 -185 -44 -11 -51 -10 -115 20 -96 46 -113 60 -204 168 -95 114 -112
126 -150 106 -51 -26 -51 -65 0 -170 32 -64 53 -91 115 -147 47 -42 103 -81
151 -103 41 -20 75 -40 75 -44 0 -37 -36 -182 -53 -216 -12 -23 -52 -76 -89
-117 l-67 -74 -93 -23 c-166 -40 -284 -18 -515 99 -45 22 -129 59 -185 82 -57
22 -121 49 -143 59 -180 82 -386 147 -575 181 -125 23 -662 17 -945 -10 -253
-24 -414 -45 -518 -67 -80 -16 -95 -17 -81 -5 15 15 169 49 457 101 315 57
632 94 1027 120 154 10 672 29 803 30 79 0 81 15 4 25 -28 4 -63 12 -77 17
-61 23 -512 131 -660 157 -632 114 -988 137 -1660 106 -252 -11 174 40 545 67
104 7 372 12 635 12 479 0 569 -5 810 -54 143 -28 346 -60 383 -60 31 1 31 1
12 16 -11 8 -51 24 -90 35 -38 11 -110 33 -160 49 -83 27 -155 48 -245 71
-112 28 -446 80 -760 119 -154 19 -472 40 -620 41 -80 1 -158 5 -175 8 -99 24
762 34 1005 12 180 -16 351 -38 545 -71 94 -16 202 -31 240 -35 39 -4 79 -9
90 -11 61 -15 -33 23 -168 67 -268 88 -428 131 -677 184 -277 58 -753 131
-1015 154 -290 26 -373 31 -585 32 -149 1 -208 4 -175 9 74 12 631 12 866 0
259 -13 503 -35 744 -66 203 -26 675 -116 840 -160 141 -37 177 -45 182 -41 3
4 -230 107 -243 107 -3 0 -20 6 -37 14 -73 32 -205 77 -382 131 -49 15 -108
33 -131 40 -45 15 -343 91 -414 105 -25 5 -76 17 -115 25 -82 18 -482 91 -540
98 -22 3 -123 17 -225 31 -203 28 -335 42 -480 51 l-95 6 -29 -93 c-16 -51
-37 -119 -48 -150 -10 -32 -18 -65 -18 -75 0 -10 -7 -38 -16 -63 -8 -24 -19
-63 -24 -85 -4 -22 -20 -95 -34 -162 -101 -481 -125 -1088 -61 -1528 31 -212
51 -304 106 -495 38 -133 132 -395 159 -442 17 -31 4 -20 -63 50 -435 455
-804 1002 -1078 1598 -48 106 -160 394 -201 519 -158 482 -247 1042 -248 1553
l0 122 -34 0 c-18 0 -55 3 -81 7 l-48 6 6 -274 c7 -335 16 -447 63 -739 43
-266 112 -535 216 -845 16 -49 36 -103 43 -120 7 -16 32 -79 55 -140 113 -291
354 -742 548 -1024 533 -777 1176 -1358 2002 -1811 652 -357 1457 -597 2283
-680 59 -6 114 -13 122 -16 18 -7 23 -25 27 -93 l3 -55 -60 2 c-339 13 -870
104 -1267 216 -881 249 -1670 688 -2359 1312 -413 374 -856 925 -1107 1374
-13 25 -39 70 -57 101 -39 67 -160 309 -200 399 -15 36 -43 98 -62 138 -18 39
-33 75 -33 78 0 4 -20 57 -44 118 -229 583 -347 1219 -359 1946 l-2 115 -185
8 c-102 4 -327 6 -500 4 -290 -3 -308 -2 -225 10 130 18 703 63 817 63 114 0
104 -14 113 150 5 92 26 288 40 375 17 102 68 376 75 405 5 19 23 94 41 165
36 153 34 144 103 355 70 213 100 295 172 460 112 259 310 629 327 610 2 -3
22 -40 45 -84 36 -69 39 -81 28 -100 -72 -116 -223 -427 -290 -596 -21 -52
-42 -104 -47 -115 -10 -23 -98 -290 -127 -385 -17 -56 -61 -229 -92 -365 -47
-201 -108 -673 -110 -847 0 -16 10 -18 79 -18 93 0 86 -11 97 160 12 209 73
578 135 825 100 393 226 722 437 1132 15 29 29 53 32 53 3 -1 45 -62 95 -138
307 -470 742 -818 1231 -985 242 -83 435 -117 664 -117 82 0 150 -3 149 -7 0
-5 -29 -33 -65 -63 -58 -49 -260 -257 -371 -380 -169 -190 -493 -663 -460
-675 6 -3 95 -25 197 -50 267 -66 835 -258 962 -325 59 -32 88 -27 129 23 85
102 139 220 248 542 47 141 105 301 151 415 23 57 64 165 91 240 28 74 61 158
73 185 13 28 34 77 47 110 21 56 111 265 165 383 13 29 24 55 24 57 0 10 243
496 298 595 70 128 185 291 244 346 66 62 167 134 224 160 84 37 226 61 464
78 134 9 689 -3 790 -18z m-480 -5182 c27 -63 43 -84 94 -127 34 -28 90 -64
126 -81 60 -29 72 -31 170 -30 86 1 115 5 158 24 29 12 55 20 59 17 3 -4 -16
-27 -43 -52 -187 -175 -433 -250 -710 -216 -176 22 -274 56 -396 139 -75 51
-146 117 -136 127 3 3 34 -4 69 -16 96 -33 242 -30 316 7 123 60 197 139 233
250 6 19 15 34 19 34 4 0 22 -34 41 -76z m2630 -269 c-15 -211 -74 -484 -129
-594 -16 -31 -34 -74 -41 -96 -50 -156 -250 -439 -435 -616 -85 -82 -283 -240
-345 -276 -25 -14 -68 -43 -97 -65 -28 -22 -94 -58 -145 -81 -51 -23 -119 -57
-151 -75 -32 -18 -116 -56 -185 -84 -367 -146 -672 -341 -806 -517 -155 -203
-214 -321 -276 -558 -11 -43 -23 -130 -27 -195 -3 -65 -9 -118 -13 -118 -4 0
-13 44 -19 98 -35 294 -174 610 -359 816 -79 86 -138 136 -275 229 -80 54
-353 190 -482 240 -204 79 -473 221 -652 346 -309 215 -565 499 -685 760 -22
48 -55 118 -73 157 -54 110 -62 137 -107 354 -27 132 -48 401 -30 400 4 -1 27
-44 52 -98 85 -183 211 -371 339 -507 36 -39 86 -93 111 -120 96 -106 305
-267 505 -389 136 -83 447 -244 575 -298 66 -28 126 -61 322 -178 101 -61 261
-196 352 -296 52 -57 136 -165 186 -240 88 -129 105 -161 181 -336 19 -43 39
-76 44 -75 6 2 14 17 19 33 5 16 12 38 17 49 4 11 15 43 24 72 37 119 320 500
457 615 172 146 291 217 693 418 547 273 751 412 1016 695 164 174 323 415
409 619 31 74 40 48 30 -89z"/>
<path d="M3440 12399 c-131 -14 -305 -96 -404 -189 -89 -84 -127 -142 -175
-265 -52 -132 -65 -223 -58 -388 8 -193 71 -425 189 -696 61 -142 159 -331
170 -331 6 0 7 7 4 16 -3 8 -13 63 -22 122 -28 182 -8 418 46 560 11 28 30 78
42 110 66 173 270 393 443 477 283 136 507 139 975 10 22 -5 20 -2 -15 30 -22
21 -83 67 -135 103 -52 37 -122 86 -155 110 -114 83 -346 213 -449 251 -213
79 -312 97 -456 80z"/>
<path d="M11355 12403 c-140 -21 -387 -115 -505 -193 -30 -19 -72 -45 -93 -55
-21 -11 -82 -50 -135 -87 -53 -37 -134 -92 -178 -123 -45 -31 -99 -72 -120
-91 -46 -42 -57 -43 166 17 l155 42 185 0 c158 1 196 -2 261 -20 337 -93 607
-386 700 -758 29 -115 37 -368 15 -493 -19 -109 -19 -115 -5 -106 24 14 209
414 248 536 75 235 94 334 99 518 4 176 -2 224 -44 345 -41 114 -81 179 -162
260 -61 61 -95 85 -167 120 -140 68 -315 105 -420 88z"/>
<path d="M5937 8066 c-92 -38 -192 -102 -235 -151 -94 -107 -154 -297 -133
-421 14 -77 45 -164 77 -215 34 -54 139 -143 219 -185 65 -35 77 -38 175 -42
89 -3 115 -1 170 18 116 39 214 113 281 212 74 109 83 138 84 278 0 140 -14
206 -55 260 -14 19 -36 51 -48 70 -36 60 -111 119 -212 167 -86 41 -235 45
-323 9z m299 -137 c40 -37 55 -75 56 -137 1 -99 -52 -162 -137 -162 -48 1
-121 36 -148 72 -28 38 -34 125 -12 172 30 63 76 86 163 82 39 -2 59 -9 78
-27z"/>
<path d="M8755 8074 c-159 -58 -253 -138 -325 -275 l-45 -84 0 -141 0 -140 38
-76 c46 -95 112 -168 199 -224 100 -64 153 -79 283 -79 106 0 113 1 185 36 52
25 97 57 146 105 63 61 75 80 109 164 75 188 52 353 -73 522 -51 69 -94 103
-205 162 -88 45 -90 46 -180 45 -54 0 -109 -6 -132 -15z m177 -151 c65 -62 61
-213 -7 -257 -37 -24 -105 -36 -155 -26 -110 20 -146 177 -62 271 50 56 171
63 224 12z"/>
<path d="M3793 7333 c-3 -10 -27 -65 -53 -123 -26 -58 -62 -143 -80 -190 -18
-47 -38 -91 -43 -98 -16 -21 10 -32 78 -32 239 -1 865 -90 1520 -216 437 -84
804 -206 1186 -393 71 -35 79 -38 54 -16 -16 14 -73 51 -125 82 -52 31 -129
76 -170 100 -41 25 -111 64 -155 88 -44 23 -123 65 -175 93 -52 28 -131 65
-175 82 -44 17 -122 54 -174 82 -52 27 -126 62 -165 78 -39 15 -100 42 -136
58 -76 35 -157 65 -490 177 -270 91 -316 106 -534 165 -132 36 -322 80 -347
80 -5 0 -12 -8 -16 -17z"/>
<path d="M11050 7333 c-85 -17 -375 -92 -495 -130 -165 -51 -415 -136 -485
-165 -14 -6 -34 -14 -45 -18 -262 -101 -449 -180 -555 -234 -47 -24 -137 -65
-200 -91 -63 -27 -126 -56 -140 -65 -14 -9 -74 -42 -134 -74 -179 -94 -511
-294 -503 -303 2 -2 73 30 158 72 155 75 498 201 689 251 52 14 129 34 170 45
77 21 507 105 810 159 318 56 773 110 941 110 42 0 78 2 81 5 6 6 -42 139 -86
240 -64 145 -102 215 -116 214 -8 -1 -49 -8 -90 -16z"/>
</g>
</svg>
