<svg width="270" height="80" viewBox="0 0 270 80" fill="none" xmlns="http://www.w3.org/2000/svg">
<g filter="url(#filter0_dg_2018_21)">
<rect x="4" y="4" width="262" height="68" rx="24" fill="#232124"/>
</g>
<path d="M69.6385 44.64C69.6385 44.7067 69.6052 44.8 69.5385 44.92C69.4718 45.04 69.4252 45.1333 69.3985 45.2C69.2252 45.5067 68.9585 45.8267 68.5985 46.16C68.2385 46.4933 67.9052 46.7667 67.5985 46.98C66.9718 47.42 66.3118 47.7067 65.6185 47.84C64.9252 47.9733 64.2052 48.04 63.4585 48.04C62.0052 48.04 60.7652 47.74 59.7385 47.14C58.7118 46.5267 57.9252 45.68 57.3785 44.6C56.8452 43.5067 56.5785 42.2467 56.5785 40.82C56.5785 39.4067 56.8385 38.1333 57.3585 37C57.8785 35.8667 58.6452 34.9667 59.6585 34.3C60.6852 33.62 61.9385 33.28 63.4185 33.28C64.0852 33.28 64.6518 33.36 65.1185 33.52C65.5852 33.68 66.1118 33.8667 66.6985 34.08C66.9785 34.1733 67.2585 34.2467 67.5385 34.3C67.8185 34.34 68.1052 34.3733 68.3985 34.4C68.4118 34.6933 68.4318 34.9933 68.4585 35.3C68.4852 35.5933 68.5185 35.8933 68.5585 36.2C68.5852 36.4533 68.6318 36.7133 68.6985 36.98C68.7652 37.2467 68.7985 37.5133 68.7985 37.78C68.7985 38.0333 68.7052 38.22 68.5185 38.34C68.3452 38.46 68.1452 38.52 67.9185 38.52C67.5452 38.52 67.2852 38.3667 67.1385 38.06C67.0985 37.9533 67.0718 37.84 67.0585 37.72C67.0452 37.5867 67.0252 37.4733 66.9985 37.38C66.9052 36.9533 66.7385 36.4933 66.4985 36C66.2718 35.4933 65.9985 35.0933 65.6785 34.8C65.4252 34.5733 65.0785 34.3733 64.6385 34.2C64.1985 34.0133 63.8052 33.92 63.4585 33.92C63.1252 33.92 62.8118 33.9933 62.5185 34.14C62.2385 34.2867 61.9652 34.4667 61.6985 34.68C61.1252 35.16 60.6718 35.7333 60.3385 36.4C60.0052 37.0667 59.7718 37.78 59.6385 38.54C59.5052 39.2867 59.4385 40.02 59.4385 40.74C59.4385 41.22 59.4652 41.7 59.5185 42.18C59.5852 42.6467 59.6852 43.1133 59.8185 43.58C60.0052 44.2067 60.2718 44.8 60.6185 45.36C60.9785 45.9067 61.4185 46.3533 61.9385 46.7C62.4718 47.0333 63.0852 47.2 63.7785 47.2C64.7652 47.2 65.6585 46.9533 66.4585 46.46C67.2718 45.9667 67.9452 45.32 68.4785 44.52C68.5585 44.3867 68.6385 44.2733 68.7185 44.18C68.8118 44.0733 68.9452 44.02 69.1185 44.02C69.2918 44.02 69.4185 44.0867 69.4985 44.22C69.5918 44.3533 69.6385 44.4933 69.6385 44.64ZM86.0707 33.7C86.0707 33.7933 86.044 33.88 85.9907 33.96C85.9374 34.04 85.8574 34.08 85.7507 34.08C85.5774 34.08 85.404 34.0733 85.2307 34.06C85.0707 34.0467 84.8974 34.04 84.7107 34.04C84.5774 34.04 84.4907 34.1 84.4507 34.22C84.4107 34.34 84.3907 34.4533 84.3907 34.56C84.3907 35.4133 84.384 36.2667 84.3707 37.12C84.3707 37.96 84.3707 38.8133 84.3707 39.68C84.3707 40.8933 84.3707 42.1067 84.3707 43.32C84.384 44.52 84.3907 45.7267 84.3907 46.94C84.3907 47.0467 84.4107 47.16 84.4507 47.28C84.4907 47.4 84.5774 47.46 84.7107 47.46C84.8974 47.46 85.0707 47.4533 85.2307 47.44C85.404 47.4267 85.5774 47.42 85.7507 47.42C85.8574 47.42 85.9307 47.4667 85.9707 47.56C86.0107 47.6533 86.0307 47.7467 86.0307 47.84C86.0307 48.04 85.924 48.14 85.7107 48.14C85.604 48.14 85.4974 48.1333 85.3907 48.12C85.284 48.1067 85.1774 48.1 85.0707 48.1C84.8707 48.0733 84.6707 48.06 84.4707 48.06C84.2707 48.06 84.0707 48.06 83.8707 48.06C83.404 48.06 82.9374 48.06 82.4707 48.06C82.0174 48.06 81.5574 48.0733 81.0907 48.1C80.9574 48.1 80.8174 48.1067 80.6707 48.12C80.5374 48.1333 80.3974 48.14 80.2507 48.14C80.1174 48.14 80.024 48.1 79.9707 48.02C79.9307 47.94 79.9107 47.8467 79.9107 47.74C79.9107 47.6333 79.9507 47.5533 80.0307 47.5C80.1107 47.4467 80.1974 47.42 80.2907 47.42C80.4374 47.42 80.5707 47.4267 80.6907 47.44C80.824 47.4533 80.9574 47.46 81.0907 47.46C81.2907 47.46 81.424 47.4267 81.4907 47.36C81.5707 47.28 81.6107 47.14 81.6107 46.94V40.72H75.0307V46.98C75.0307 47.18 75.0707 47.32 75.1507 47.4C75.2307 47.4667 75.364 47.5 75.5507 47.5C75.684 47.5 75.8174 47.4933 75.9507 47.48C76.084 47.4667 76.2174 47.46 76.3507 47.46C76.4574 47.46 76.5507 47.4867 76.6307 47.54C76.7107 47.58 76.7507 47.66 76.7507 47.78C76.7507 48.0333 76.6307 48.16 76.3907 48.16C75.8974 48.16 75.404 48.14 74.9107 48.1C74.4307 48.0733 73.9507 48.06 73.4707 48.06C73.2307 48.06 72.984 48.06 72.7307 48.06C72.4907 48.06 72.2507 48.0667 72.0107 48.08C71.8374 48.0933 71.664 48.1067 71.4907 48.12C71.3307 48.1467 71.164 48.16 70.9907 48.16C70.8974 48.16 70.824 48.1133 70.7707 48.02C70.7307 47.94 70.7107 47.8667 70.7107 47.8C70.7107 47.7333 70.7374 47.66 70.7907 47.58C70.844 47.5 70.9107 47.46 70.9907 47.46C71.164 47.46 71.3307 47.4667 71.4907 47.48C71.664 47.4933 71.8374 47.5 72.0107 47.5C72.1574 47.5 72.2507 47.44 72.2907 47.32C72.3307 47.2 72.3507 47.0867 72.3507 46.98C72.3507 45.66 72.3507 44.34 72.3507 43.02C72.3507 41.7 72.3507 40.38 72.3507 39.06C72.3507 38.3133 72.3507 37.5667 72.3507 36.82C72.3507 36.06 72.3507 35.3133 72.3507 34.58C72.3507 34.4733 72.3307 34.36 72.2907 34.24C72.2507 34.12 72.1574 34.06 72.0107 34.06C71.8374 34.06 71.664 34.0667 71.4907 34.08C71.3307 34.0933 71.164 34.1 70.9907 34.1C70.7774 34.1 70.6707 33.98 70.6707 33.74C70.6707 33.6467 70.6974 33.56 70.7507 33.48C70.804 33.4 70.884 33.36 70.9907 33.36C71.3374 33.36 71.6774 33.3733 72.0107 33.4C72.3574 33.4267 72.704 33.44 73.0507 33.44C73.5974 33.44 74.144 33.4267 74.6907 33.4C75.2507 33.3733 75.804 33.36 76.3507 33.36C76.604 33.36 76.7307 33.4867 76.7307 33.74C76.7307 33.9133 76.6574 34.0133 76.5107 34.04C76.3774 34.0667 76.2507 34.08 76.1307 34.08C76.0374 34.08 75.944 34.08 75.8507 34.08C75.7574 34.0667 75.6574 34.06 75.5507 34.06C75.3774 34.06 75.244 34.1133 75.1507 34.22C75.0707 34.3267 75.0307 34.4667 75.0307 34.64V40.06H81.6107V34.56C81.6107 34.36 81.5707 34.2267 81.4907 34.16C81.424 34.08 81.2907 34.04 81.0907 34.04C80.9574 34.04 80.824 34.0467 80.6907 34.06C80.5707 34.0733 80.4374 34.08 80.2907 34.08C80.2107 34.08 80.124 34.0467 80.0307 33.98C79.9507 33.9133 79.9107 33.8333 79.9107 33.74C79.9107 33.4867 80.0374 33.36 80.2907 33.36C80.4507 33.36 80.6107 33.3667 80.7707 33.38C80.9307 33.3933 81.0907 33.4067 81.2507 33.42C81.5574 33.4333 81.864 33.4467 82.1707 33.46C82.4774 33.46 82.784 33.46 83.0907 33.46C83.5307 33.46 83.9707 33.4467 84.4107 33.42C84.864 33.38 85.3107 33.36 85.7507 33.36C85.8574 33.36 85.9374 33.3933 85.9907 33.46C86.044 33.5267 86.0707 33.6067 86.0707 33.7ZM99.669 44.56C99.669 44.7733 99.6423 44.9933 99.589 45.22C99.549 45.4333 99.5157 45.6533 99.489 45.88C99.4623 46.1333 99.429 46.3933 99.389 46.66C99.3623 46.9267 99.3357 47.1933 99.309 47.46C99.269 47.6733 99.209 47.82 99.129 47.9C99.049 47.9667 98.8957 48 98.669 48C97.309 48 95.949 47.9933 94.589 47.98C93.229 47.9533 91.869 47.94 90.509 47.94C90.0423 47.94 89.5757 47.96 89.109 48C88.6423 48.0533 88.1757 48.08 87.709 48.08C87.4823 48.08 87.369 47.9667 87.369 47.74C87.369 47.5133 87.469 47.4 87.669 47.4C87.869 47.3867 88.0823 47.3667 88.309 47.34C88.5757 47.3133 88.789 47.2133 88.949 47.04C89.1223 46.8533 89.209 46.48 89.209 45.92V35.14C89.209 34.9267 89.169 34.72 89.089 34.52C89.0223 34.32 88.8557 34.22 88.589 34.22C88.429 34.22 88.269 34.2267 88.109 34.24C87.949 34.24 87.789 34.24 87.629 34.24C87.2957 34.24 87.129 34.08 87.129 33.76C87.129 33.6 87.1823 33.5 87.289 33.46C87.3957 33.4067 87.5157 33.38 87.649 33.38C88.0357 33.38 88.4157 33.3933 88.789 33.42C89.1623 33.4333 89.5357 33.44 89.909 33.44C91.1623 33.44 92.4157 33.4333 93.669 33.42C94.9223 33.3933 96.1757 33.38 97.429 33.38C97.669 33.38 97.909 33.3733 98.149 33.36C98.389 33.3333 98.629 33.3067 98.869 33.28C98.8957 33.4933 98.9223 33.7067 98.949 33.92C98.989 34.1333 99.0223 34.3467 99.049 34.56C99.089 34.8133 99.1423 35.08 99.209 35.36C99.289 35.64 99.329 35.9133 99.329 36.18C99.329 36.34 99.2623 36.4733 99.129 36.58C98.9957 36.6733 98.8557 36.72 98.709 36.72C98.389 36.72 98.1757 36.58 98.069 36.3C97.869 35.6733 97.569 35.1533 97.169 34.74C96.7823 34.3133 96.2357 34.1 95.529 34.1H91.929V39.98C92.4357 39.98 92.929 39.9733 93.409 39.96C93.9023 39.9467 94.3957 39.92 94.889 39.88C95.3823 39.84 95.8557 39.76 96.309 39.64C96.4957 39.6 96.689 39.5467 96.889 39.48C97.1023 39.4133 97.3023 39.38 97.489 39.38C97.649 39.38 97.729 39.4533 97.729 39.6C97.729 39.6933 97.7023 39.8333 97.649 40.02C97.609 40.2067 97.5757 40.3467 97.549 40.44C97.4823 40.6133 97.4157 40.72 97.349 40.76C97.2823 40.7867 97.1623 40.8 96.989 40.8C96.669 40.8 96.3557 40.78 96.049 40.74C95.5423 40.6867 95.029 40.6533 94.509 40.64C93.989 40.6133 93.469 40.6 92.949 40.6C92.6557 40.6 92.409 40.68 92.209 40.84C92.0223 40.9867 91.929 41.22 91.929 41.54V46.46C91.929 46.78 91.969 47.0067 92.049 47.14C92.1423 47.2733 92.3557 47.34 92.689 47.34C93.049 47.34 93.449 47.34 93.889 47.34C94.329 47.34 94.7757 47.32 95.229 47.28C95.6957 47.24 96.129 47.1533 96.529 47.02C96.929 46.8867 97.2623 46.6867 97.529 46.42C97.7557 46.1933 97.9757 45.8933 98.189 45.52C98.4023 45.1467 98.5757 44.8133 98.709 44.52C98.7757 44.36 98.8423 44.2533 98.909 44.2C98.9757 44.1333 99.0957 44.1 99.269 44.1C99.429 44.1 99.5357 44.14 99.589 44.22C99.6423 44.3 99.669 44.4133 99.669 44.56ZM114.346 44.64C114.346 44.7067 114.312 44.8 114.246 44.92C114.179 45.04 114.132 45.1333 114.106 45.2C113.932 45.5067 113.666 45.8267 113.306 46.16C112.946 46.4933 112.612 46.7667 112.306 46.98C111.679 47.42 111.019 47.7067 110.326 47.84C109.632 47.9733 108.912 48.04 108.166 48.04C106.712 48.04 105.472 47.74 104.446 47.14C103.419 46.5267 102.632 45.68 102.086 44.6C101.552 43.5067 101.286 42.2467 101.286 40.82C101.286 39.4067 101.546 38.1333 102.066 37C102.586 35.8667 103.352 34.9667 104.366 34.3C105.392 33.62 106.646 33.28 108.126 33.28C108.792 33.28 109.359 33.36 109.826 33.52C110.292 33.68 110.819 33.8667 111.406 34.08C111.686 34.1733 111.966 34.2467 112.246 34.3C112.526 34.34 112.812 34.3733 113.106 34.4C113.119 34.6933 113.139 34.9933 113.166 35.3C113.192 35.5933 113.226 35.8933 113.266 36.2C113.292 36.4533 113.339 36.7133 113.406 36.98C113.472 37.2467 113.506 37.5133 113.506 37.78C113.506 38.0333 113.412 38.22 113.226 38.34C113.052 38.46 112.852 38.52 112.626 38.52C112.252 38.52 111.992 38.3667 111.846 38.06C111.806 37.9533 111.779 37.84 111.766 37.72C111.752 37.5867 111.732 37.4733 111.706 37.38C111.612 36.9533 111.446 36.4933 111.206 36C110.979 35.4933 110.706 35.0933 110.386 34.8C110.132 34.5733 109.786 34.3733 109.346 34.2C108.906 34.0133 108.512 33.92 108.166 33.92C107.832 33.92 107.519 33.9933 107.226 34.14C106.946 34.2867 106.672 34.4667 106.406 34.68C105.832 35.16 105.379 35.7333 105.046 36.4C104.712 37.0667 104.479 37.78 104.346 38.54C104.212 39.2867 104.146 40.02 104.146 40.74C104.146 41.22 104.172 41.7 104.226 42.18C104.292 42.6467 104.392 43.1133 104.526 43.58C104.712 44.2067 104.979 44.8 105.326 45.36C105.686 45.9067 106.126 46.3533 106.646 46.7C107.179 47.0333 107.792 47.2 108.486 47.2C109.472 47.2 110.366 46.9533 111.166 46.46C111.979 45.9667 112.652 45.32 113.186 44.52C113.266 44.3867 113.346 44.2733 113.426 44.18C113.519 44.0733 113.652 44.02 113.826 44.02C113.999 44.02 114.126 44.0867 114.206 44.22C114.299 44.3533 114.346 44.4933 114.346 44.64ZM129.098 47.68C129.098 47.6933 129.098 47.72 129.098 47.76C129.098 47.7867 129.091 47.8133 129.078 47.84C129.024 47.9467 128.918 48 128.758 48C128.464 48 128.171 48 127.878 48C127.598 48 127.311 48 127.018 48H125.738C125.364 48 125.084 47.94 124.898 47.82C124.724 47.7 124.538 47.4933 124.338 47.2C123.578 46.1067 122.818 45.02 122.058 43.94C121.298 42.8467 120.531 41.7533 119.758 40.66L119.498 40.86C119.511 41.86 119.518 42.86 119.518 43.86C119.518 44.86 119.518 45.8533 119.518 46.84C119.518 46.96 119.544 47.08 119.598 47.2C119.664 47.3067 119.764 47.36 119.898 47.36C120.071 47.36 120.244 47.3533 120.418 47.34C120.591 47.3267 120.764 47.32 120.938 47.32C121.031 47.32 121.098 47.36 121.138 47.44C121.191 47.52 121.218 47.6 121.218 47.68C121.218 47.7467 121.191 47.8267 121.138 47.92C121.084 48 121.018 48.04 120.938 48.04C120.618 48.04 120.298 48.0267 119.978 48C119.671 47.9867 119.364 47.98 119.058 47.98C118.604 47.98 118.151 47.98 117.698 47.98C117.258 47.9667 116.818 47.9733 116.378 48C116.204 48.0133 116.031 48.02 115.858 48.02C115.684 48.0333 115.504 48.04 115.318 48.04C115.198 48.04 115.111 48 115.058 47.92C115.004 47.84 114.978 47.7467 114.978 47.64C114.978 47.4267 115.091 47.32 115.318 47.32C115.478 47.32 115.631 47.3267 115.778 47.34C115.938 47.3533 116.091 47.36 116.238 47.36C116.504 47.36 116.664 47.2867 116.718 47.14C116.771 46.9933 116.798 46.8133 116.798 46.6V35.1C116.798 34.6467 116.758 34.3467 116.678 34.2C116.611 34.04 116.478 33.96 116.278 33.96C116.078 33.9467 115.784 33.94 115.398 33.94C115.318 33.94 115.231 33.92 115.138 33.88C115.058 33.8267 115.018 33.7533 115.018 33.66C115.018 33.5667 115.038 33.48 115.078 33.4C115.118 33.32 115.191 33.28 115.298 33.28C115.591 33.28 115.878 33.2933 116.158 33.32C116.451 33.3333 116.744 33.34 117.038 33.34C117.504 33.34 117.971 33.34 118.438 33.34C118.904 33.34 119.364 33.34 119.818 33.34C120.004 33.34 120.191 33.3333 120.378 33.32C120.578 33.2933 120.771 33.28 120.958 33.28C121.038 33.28 121.098 33.32 121.138 33.4C121.191 33.4667 121.218 33.5333 121.218 33.6C121.218 33.6667 121.191 33.74 121.138 33.82C121.098 33.9 121.038 33.94 120.958 33.94C120.784 33.94 120.611 33.94 120.438 33.94C120.264 33.9267 120.091 33.92 119.918 33.92C119.784 33.92 119.684 33.9733 119.618 34.08C119.551 34.1867 119.518 34.3 119.518 34.42C119.518 34.9 119.511 35.3867 119.498 35.88C119.498 36.36 119.498 36.84 119.498 37.32V40.02C120.444 39.1133 121.358 38.1933 122.238 37.26C123.131 36.3267 123.978 35.3467 124.778 34.32C124.924 34.1467 125.024 33.94 125.078 33.7C125.131 33.5133 125.184 33.4 125.238 33.36C125.291 33.32 125.411 33.3 125.598 33.3L126.198 33.32C126.504 33.32 126.811 33.3133 127.118 33.3C127.424 33.2867 127.731 33.28 128.038 33.28C128.264 33.28 128.378 33.3933 128.378 33.62C128.378 33.7933 128.324 33.9 128.218 33.94C128.111 33.9667 127.991 33.98 127.858 33.98C127.591 33.98 127.331 34.04 127.078 34.16C126.838 34.2667 126.618 34.4133 126.418 34.6L121.658 39.14C122.604 40.4733 123.571 41.7867 124.558 43.08C125.558 44.3733 126.564 45.6533 127.578 46.92C127.764 47.1467 127.978 47.2867 128.218 47.34C128.458 47.3933 128.664 47.4333 128.838 47.46C129.011 47.4733 129.098 47.5467 129.098 47.68ZM141.011 33.74C141.011 33.9667 140.905 34.08 140.691 34.08C140.531 34.08 140.365 34.08 140.191 34.08C140.031 34.0667 139.871 34.06 139.711 34.06C139.578 34.06 139.485 34.12 139.431 34.24C139.378 34.3467 139.351 34.46 139.351 34.58C139.351 35.0467 139.345 35.52 139.331 36C139.331 36.4667 139.331 36.9333 139.331 37.4C139.331 38.8667 139.331 40.34 139.331 41.82C139.345 43.2867 139.351 44.7533 139.351 46.22C139.351 46.3133 139.345 46.46 139.331 46.66C139.318 46.86 139.331 47.0467 139.371 47.22C139.425 47.38 139.525 47.46 139.671 47.46C139.845 47.46 140.018 47.4533 140.191 47.44C140.365 47.4267 140.538 47.42 140.711 47.42C140.805 47.42 140.871 47.46 140.911 47.54C140.951 47.6067 140.971 47.6867 140.971 47.78C140.971 47.8733 140.938 47.9533 140.871 48.02C140.818 48.1 140.738 48.14 140.631 48.14C140.178 48.14 139.725 48.1333 139.271 48.12C138.831 48.1067 138.385 48.1 137.931 48.1C137.478 48.1 137.025 48.1067 136.571 48.12C136.118 48.1333 135.665 48.14 135.211 48.14C135.078 48.14 134.991 48.1133 134.951 48.06C134.911 48.0067 134.891 47.92 134.891 47.8C134.891 47.6933 134.911 47.6067 134.951 47.54C135.005 47.46 135.085 47.42 135.191 47.42C135.338 47.42 135.485 47.4267 135.631 47.44C135.778 47.4533 135.918 47.46 136.051 47.46C136.238 47.46 136.365 47.4 136.431 47.28C136.498 47.16 136.538 47.02 136.551 46.86C136.565 46.6867 136.571 46.54 136.571 46.42L136.591 34.94C136.591 34.82 136.578 34.6467 136.551 34.42C136.525 34.18 136.431 34.0533 136.271 34.04C136.231 34.04 136.191 34.04 136.151 34.04C136.125 34.04 136.091 34.04 136.051 34.04C135.918 34.04 135.785 34.0467 135.651 34.06C135.531 34.0733 135.405 34.08 135.271 34.08C135.018 34.08 134.891 33.9533 134.891 33.7C134.891 33.6067 134.918 33.5267 134.971 33.46C135.038 33.3933 135.118 33.36 135.211 33.36C135.785 33.36 136.351 33.3733 136.911 33.4C137.485 33.4267 138.058 33.44 138.631 33.44C138.978 33.44 139.325 33.4267 139.671 33.4C140.031 33.3733 140.385 33.36 140.731 33.36C140.838 33.36 140.911 33.4 140.951 33.48C140.991 33.56 141.011 33.6467 141.011 33.74ZM156.053 36.98C156.053 37.1133 156.02 37.24 155.953 37.36C155.886 37.4667 155.78 37.52 155.633 37.52C155.42 37.52 155.273 37.4733 155.193 37.38C155.126 37.2867 155.066 37.1533 155.013 36.98C154.973 36.7933 154.906 36.5667 154.813 36.3C154.733 36.02 154.64 35.7467 154.533 35.48C154.44 35.2 154.34 34.9867 154.233 34.84C154.18 34.76 154.12 34.6867 154.053 34.62C153.986 34.54 153.92 34.4667 153.853 34.4C153.76 34.28 153.593 34.2 153.353 34.16C153.113 34.1067 152.866 34.08 152.613 34.08C152.36 34.0667 152.16 34.06 152.013 34.06C151.84 34.06 151.653 34.06 151.453 34.06C151.253 34.06 151.08 34.1067 150.933 34.2C150.786 34.28 150.706 34.44 150.693 34.68C150.68 35.1333 150.673 35.6 150.673 36.08C150.673 36.5467 150.673 37.0133 150.673 37.48C150.673 39 150.673 40.52 150.673 42.04C150.686 43.56 150.693 45.08 150.693 46.6C150.693 46.76 150.713 46.9467 150.753 47.16C150.806 47.3733 150.94 47.48 151.153 47.48C151.353 47.48 151.546 47.4733 151.733 47.46C151.933 47.4467 152.133 47.44 152.333 47.44C152.44 47.44 152.52 47.4867 152.573 47.58C152.626 47.66 152.653 47.74 152.653 47.82C152.653 48.06 152.54 48.18 152.313 48.18C152.166 48.18 152.013 48.1733 151.853 48.16C151.706 48.1467 151.56 48.1333 151.413 48.12C151.16 48.0933 150.906 48.08 150.653 48.08C150.4 48.08 150.14 48.08 149.873 48.08C149.433 48.08 148.993 48.08 148.553 48.08C148.113 48.08 147.673 48.0933 147.233 48.12C147.073 48.1333 146.906 48.1467 146.733 48.16C146.573 48.1733 146.413 48.18 146.253 48.18C146.133 48.18 146.04 48.14 145.973 48.06C145.906 47.98 145.873 47.8867 145.873 47.78C145.873 47.6333 145.933 47.5467 146.053 47.52C146.173 47.48 146.286 47.46 146.393 47.46C146.54 47.46 146.673 47.4667 146.793 47.48C146.926 47.48 147.06 47.48 147.193 47.48C147.54 47.48 147.733 47.4 147.773 47.24C147.826 47.08 147.853 46.8533 147.853 46.56V35.4C147.853 34.88 147.826 34.5333 147.773 34.36C147.72 34.1733 147.58 34.08 147.353 34.08C147.126 34.0667 146.753 34.06 146.233 34.06C146.06 34.06 145.82 34.0667 145.513 34.08C145.22 34.0933 145 34.14 144.853 34.22C144.68 34.3133 144.54 34.44 144.433 34.6C144.326 34.7467 144.24 34.9133 144.173 35.1C144.066 35.4067 143.96 35.72 143.853 36.04C143.76 36.36 143.66 36.6733 143.553 36.98C143.5 37.1667 143.433 37.3067 143.353 37.4C143.273 37.48 143.126 37.52 142.913 37.52C142.66 37.52 142.533 37.3867 142.533 37.12C142.533 36.7733 142.566 36.38 142.633 35.94C142.713 35.4867 142.76 35.0667 142.773 34.68C142.786 34.4667 142.786 34.2533 142.773 34.04C142.773 33.8133 142.793 33.6 142.833 33.4C142.846 33.3067 142.893 33.26 142.973 33.26C143.12 33.26 143.266 33.28 143.413 33.32C143.573 33.36 143.726 33.3933 143.873 33.42C144.033 33.4333 144.193 33.4467 144.353 33.46C144.526 33.46 144.7 33.4667 144.873 33.48C145.58 33.4933 146.313 33.5067 147.073 33.52C147.846 33.52 148.58 33.52 149.273 33.52C150.06 33.52 150.886 33.5133 151.753 33.5C152.62 33.4867 153.446 33.48 154.233 33.48C154.313 33.48 154.393 33.48 154.473 33.48C154.566 33.48 154.653 33.4733 154.733 33.46C154.88 33.4333 155.02 33.3933 155.153 33.34C155.3 33.2867 155.446 33.26 155.593 33.26C155.66 33.26 155.706 33.2933 155.733 33.36C155.773 33.5467 155.8 33.7667 155.813 34.02C155.826 34.26 155.84 34.4733 155.853 34.66C155.893 35.0333 155.933 35.42 155.973 35.82C156.026 36.2067 156.053 36.5933 156.053 36.98ZM173.522 40.74C173.522 40.2333 173.482 39.6733 173.402 39.06C173.322 38.4333 173.188 37.8133 173.002 37.2C172.815 36.5867 172.562 36.0267 172.242 35.52C171.922 35 171.522 34.5867 171.042 34.28C170.575 33.96 170.015 33.8 169.362 33.8C168.708 33.8 168.142 33.96 167.662 34.28C167.182 34.5867 166.775 35 166.442 35.52C166.122 36.0267 165.862 36.5867 165.662 37.2C165.462 37.8133 165.315 38.4333 165.222 39.06C165.142 39.6733 165.102 40.2333 165.102 40.74C165.102 41.2467 165.148 41.8067 165.242 42.42C165.335 43.02 165.482 43.6267 165.682 44.24C165.882 44.84 166.142 45.3933 166.462 45.9C166.795 46.3933 167.202 46.7933 167.682 47.1C168.162 47.3933 168.722 47.54 169.362 47.54C170.028 47.54 170.595 47.3933 171.062 47.1C171.542 46.7933 171.935 46.3933 172.242 45.9C172.562 45.4067 172.815 44.86 173.002 44.26C173.188 43.66 173.322 43.0533 173.402 42.44C173.482 41.8267 173.522 41.26 173.522 40.74ZM176.422 40.7C176.422 42.2067 176.155 43.52 175.622 44.64C175.088 45.76 174.295 46.6267 173.242 47.24C172.202 47.8533 170.908 48.16 169.362 48.16C167.842 48.16 166.555 47.8533 165.502 47.24C164.448 46.6133 163.648 45.7467 163.102 44.64C162.555 43.52 162.282 42.22 162.282 40.74C162.282 39.7 162.442 38.7267 162.762 37.82C163.095 36.9 163.568 36.0933 164.182 35.4C164.808 34.7067 165.555 34.1667 166.422 33.78C167.302 33.3933 168.282 33.2 169.362 33.2C170.882 33.2 172.168 33.52 173.222 34.16C174.275 34.7867 175.068 35.6667 175.602 36.8C176.148 37.92 176.422 39.22 176.422 40.7ZM192.448 33.7C192.448 33.7933 192.415 33.8867 192.348 33.98C192.295 34.06 192.215 34.1 192.108 34.1C191.935 34.1 191.761 34.1 191.588 34.1C191.415 34.0867 191.241 34.08 191.068 34.08C190.895 34.08 190.788 34.1667 190.748 34.34C190.708 34.5 190.688 34.6467 190.688 34.78C190.688 34.8467 190.688 34.92 190.688 35C190.701 35.0667 190.708 35.1333 190.708 35.2C190.708 36.4133 190.708 37.62 190.708 38.82C190.721 40.02 190.728 41.22 190.728 42.42C190.728 44.18 190.295 45.5733 189.428 46.6C188.561 47.6133 187.215 48.12 185.388 48.12C183.588 48.12 182.188 47.6867 181.188 46.82C180.188 45.9533 179.688 44.5867 179.688 42.72V41.82C179.688 40.6733 179.688 39.5267 179.688 38.38C179.701 37.22 179.708 36.06 179.708 34.9C179.708 34.78 179.695 34.62 179.668 34.42C179.641 34.2067 179.548 34.0933 179.388 34.08C179.215 34.0667 179.035 34.0667 178.848 34.08C178.675 34.0933 178.501 34.1 178.328 34.1C178.235 34.1 178.148 34.0667 178.068 34C177.988 33.92 177.948 33.8333 177.948 33.74C177.948 33.6333 177.981 33.54 178.048 33.46C178.128 33.38 178.221 33.34 178.328 33.34C178.488 33.34 178.641 33.3467 178.788 33.36C178.948 33.3733 179.101 33.3867 179.248 33.4C179.555 33.4133 179.861 33.4267 180.168 33.44C180.475 33.44 180.775 33.44 181.068 33.44C181.375 33.44 181.668 33.44 181.948 33.44C182.241 33.44 182.535 33.4333 182.828 33.42C183.015 33.4067 183.195 33.3933 183.368 33.38C183.555 33.3533 183.735 33.34 183.908 33.34C184.015 33.34 184.095 33.38 184.148 33.46C184.215 33.54 184.248 33.6333 184.248 33.74C184.248 33.8333 184.215 33.92 184.148 34C184.095 34.0667 184.015 34.1 183.908 34.1C183.735 34.1 183.561 34.0933 183.388 34.08C183.228 34.0667 183.061 34.06 182.888 34.06C182.755 34.06 182.668 34.12 182.628 34.24C182.588 34.3467 182.561 34.4533 182.548 34.56C182.535 34.7733 182.528 34.9867 182.528 35.2C182.541 35.4133 182.548 35.6267 182.548 35.84C182.548 37.04 182.535 38.24 182.508 39.44C182.495 40.6267 182.488 41.82 182.488 43.02C182.488 43.5933 182.508 44.14 182.548 44.66C182.601 45.1667 182.721 45.62 182.908 46.02C183.095 46.42 183.388 46.7333 183.788 46.96C184.201 47.1867 184.768 47.3 185.488 47.3C186.448 47.3 187.215 47.08 187.788 46.64C188.361 46.1867 188.775 45.6 189.028 44.88C189.281 44.1467 189.408 43.3533 189.408 42.5C189.408 41.18 189.381 39.86 189.328 38.54C189.275 37.22 189.248 35.9 189.248 34.58C189.248 34.38 189.201 34.2467 189.108 34.18C189.015 34.1 188.875 34.06 188.688 34.06C188.555 34.06 188.421 34.0667 188.288 34.08C188.168 34.0933 188.035 34.1 187.888 34.1C187.795 34.1 187.708 34.0667 187.628 34C187.548 33.9333 187.508 33.8467 187.508 33.74C187.508 33.6333 187.541 33.54 187.608 33.46C187.688 33.38 187.781 33.34 187.888 33.34C188.101 33.34 188.308 33.3533 188.508 33.38C188.708 33.3933 188.915 33.4067 189.128 33.42C189.261 33.4333 189.395 33.44 189.528 33.44C189.661 33.44 189.795 33.44 189.928 33.44C190.075 33.44 190.221 33.44 190.368 33.44C190.528 33.44 190.681 33.4333 190.828 33.42C191.041 33.42 191.248 33.4067 191.448 33.38C191.661 33.3533 191.875 33.34 192.088 33.34C192.328 33.34 192.448 33.46 192.448 33.7ZM206.385 36.98C206.385 37.1133 206.352 37.24 206.285 37.36C206.218 37.4667 206.112 37.52 205.965 37.52C205.752 37.52 205.605 37.4733 205.525 37.38C205.458 37.2867 205.398 37.1533 205.345 36.98C205.305 36.7933 205.238 36.5667 205.145 36.3C205.065 36.02 204.972 35.7467 204.865 35.48C204.772 35.2 204.672 34.9867 204.565 34.84C204.512 34.76 204.452 34.6867 204.385 34.62C204.318 34.54 204.252 34.4667 204.185 34.4C204.092 34.28 203.925 34.2 203.685 34.16C203.445 34.1067 203.198 34.08 202.945 34.08C202.692 34.0667 202.492 34.06 202.345 34.06C202.172 34.06 201.985 34.06 201.785 34.06C201.585 34.06 201.412 34.1067 201.265 34.2C201.118 34.28 201.038 34.44 201.025 34.68C201.012 35.1333 201.005 35.6 201.005 36.08C201.005 36.5467 201.005 37.0133 201.005 37.48C201.005 39 201.005 40.52 201.005 42.04C201.018 43.56 201.025 45.08 201.025 46.6C201.025 46.76 201.045 46.9467 201.085 47.16C201.138 47.3733 201.272 47.48 201.485 47.48C201.685 47.48 201.878 47.4733 202.065 47.46C202.265 47.4467 202.465 47.44 202.665 47.44C202.772 47.44 202.852 47.4867 202.905 47.58C202.958 47.66 202.985 47.74 202.985 47.82C202.985 48.06 202.872 48.18 202.645 48.18C202.498 48.18 202.345 48.1733 202.185 48.16C202.038 48.1467 201.892 48.1333 201.745 48.12C201.492 48.0933 201.238 48.08 200.985 48.08C200.732 48.08 200.472 48.08 200.205 48.08C199.765 48.08 199.325 48.08 198.885 48.08C198.445 48.08 198.005 48.0933 197.565 48.12C197.405 48.1333 197.238 48.1467 197.065 48.16C196.905 48.1733 196.745 48.18 196.585 48.18C196.465 48.18 196.372 48.14 196.305 48.06C196.238 47.98 196.205 47.8867 196.205 47.78C196.205 47.6333 196.265 47.5467 196.385 47.52C196.505 47.48 196.618 47.46 196.725 47.46C196.872 47.46 197.005 47.4667 197.125 47.48C197.258 47.48 197.392 47.48 197.525 47.48C197.872 47.48 198.065 47.4 198.105 47.24C198.158 47.08 198.185 46.8533 198.185 46.56V35.4C198.185 34.88 198.158 34.5333 198.105 34.36C198.052 34.1733 197.912 34.08 197.685 34.08C197.458 34.0667 197.085 34.06 196.565 34.06C196.392 34.06 196.152 34.0667 195.845 34.08C195.552 34.0933 195.332 34.14 195.185 34.22C195.012 34.3133 194.872 34.44 194.765 34.6C194.658 34.7467 194.572 34.9133 194.505 35.1C194.398 35.4067 194.292 35.72 194.185 36.04C194.092 36.36 193.992 36.6733 193.885 36.98C193.832 37.1667 193.765 37.3067 193.685 37.4C193.605 37.48 193.458 37.52 193.245 37.52C192.992 37.52 192.865 37.3867 192.865 37.12C192.865 36.7733 192.898 36.38 192.965 35.94C193.045 35.4867 193.092 35.0667 193.105 34.68C193.118 34.4667 193.118 34.2533 193.105 34.04C193.105 33.8133 193.125 33.6 193.165 33.4C193.178 33.3067 193.225 33.26 193.305 33.26C193.452 33.26 193.598 33.28 193.745 33.32C193.905 33.36 194.058 33.3933 194.205 33.42C194.365 33.4333 194.525 33.4467 194.685 33.46C194.858 33.46 195.032 33.4667 195.205 33.48C195.912 33.4933 196.645 33.5067 197.405 33.52C198.178 33.52 198.912 33.52 199.605 33.52C200.392 33.52 201.218 33.5133 202.085 33.5C202.952 33.4867 203.778 33.48 204.565 33.48C204.645 33.48 204.725 33.48 204.805 33.48C204.898 33.48 204.985 33.4733 205.065 33.46C205.212 33.4333 205.352 33.3933 205.485 33.34C205.632 33.2867 205.778 33.26 205.925 33.26C205.992 33.26 206.038 33.2933 206.065 33.36C206.105 33.5467 206.132 33.7667 206.145 34.02C206.158 34.26 206.172 34.4733 206.185 34.66C206.225 35.0333 206.265 35.42 206.305 35.82C206.358 36.2067 206.385 36.5933 206.385 36.98ZM212.074 47C212.074 47.4133 211.914 47.7667 211.594 48.06C211.287 48.3533 210.927 48.5 210.514 48.5C210.1 48.5 209.734 48.3533 209.414 48.06C209.107 47.7667 208.954 47.4133 208.954 47C208.954 46.5733 209.107 46.22 209.414 45.94C209.734 45.66 210.1 45.52 210.514 45.52C210.927 45.52 211.287 45.66 211.594 45.94C211.914 46.22 212.074 46.5733 212.074 47ZM212.134 34.2C212.134 34.4667 212.107 34.7333 212.054 35C212.014 35.2667 211.98 35.5333 211.954 35.8C211.767 37.2133 211.58 38.6267 211.394 40.04C211.22 41.4533 211.04 42.8733 210.854 44.3H210.154C210.047 42.8733 209.9 41.4533 209.714 40.04C209.54 38.6133 209.34 37.2 209.114 35.8C209.074 35.5333 209.027 35.2667 208.974 35C208.934 34.7333 208.914 34.4667 208.914 34.2C208.914 33.8 209.087 33.4867 209.434 33.26C209.794 33.02 210.154 32.9 210.514 32.9C210.74 32.9 210.98 32.96 211.234 33.08C211.487 33.1867 211.7 33.34 211.874 33.54C212.047 33.7267 212.134 33.9467 212.134 34.2Z" fill="#F2D76C"/>
<defs>
<filter id="filter0_dg_2018_21" x="0" y="0" width="270" height="80" filterUnits="userSpaceOnUse" color-interpolation-filters="sRGB">
<feFlood flood-opacity="0" result="BackgroundImageFix"/>
<feColorMatrix in="SourceAlpha" type="matrix" values="0 0 0 0 0 0 0 0 0 0 0 0 0 0 0 0 0 0 127 0" result="hardAlpha"/>
<feOffset dy="4"/>
<feGaussianBlur stdDeviation="2"/>
<feComposite in2="hardAlpha" operator="out"/>
<feColorMatrix type="matrix" values="0 0 0 0 0 0 0 0 0 0 0 0 0 0 0 0 0 0 0.25 0"/>
<feBlend mode="normal" in2="BackgroundImageFix" result="effect1_dropShadow_2018_21"/>
<feBlend mode="normal" in="SourceGraphic" in2="effect1_dropShadow_2018_21" result="shape"/>
<feTurbulence type="fractalNoise" baseFrequency="0.25 0.25" numOctaves="3" seed="333" />
<feDisplacementMap in="shape" scale="8" xChannelSelector="R" yChannelSelector="G" result="displacedImage" width="100%" height="100%" />
<feMerge result="effect2_texture_2018_21">
<feMergeNode in="displacedImage"/>
</feMerge>
</filter>
</defs>
</svg>
