
<svg width="342" height="342" viewBox="0 0 342 342" fill="none" xmlns="http://www.w3.org/2000/svg">
<circle cx="171" cy="171" r="171" fill="#D9D9D9" fill-opacity="0.02"/>
<circle cx="171" cy="171" r="168" stroke="white" stroke-opacity="0.8" stroke-width="6"/>
<path d="M115.211 234.12C113.984 234.12 112.824 233.773 111.731 233.08C110.664 232.387 109.664 231.467 108.731 230.32C107.797 229.147 106.931 227.84 106.131 226.4C105.331 224.96 104.611 223.48 103.971 221.96C102.237 217.96 100.677 213.093 99.2908 207.36C99.2108 206.96 99.2774 206.613 99.4908 206.32C99.7041 206.027 100.024 205.88 100.451 205.88C100.691 205.88 100.917 205.96 101.131 206.12C101.344 206.253 101.504 206.467 101.611 206.76C102.624 210.707 103.651 214.2 104.691 217.24C105.757 220.28 106.864 222.853 108.011 224.96C110.384 229.307 112.771 231.48 115.171 231.48C117.357 231.48 119.557 229.547 121.771 225.68C122.891 223.653 123.984 221.067 125.051 217.92C126.117 214.773 127.144 211.067 128.131 206.8C128.184 206.453 128.317 206.213 128.531 206.08C128.771 205.947 128.997 205.88 129.211 205.88C129.717 205.88 130.077 206.027 130.291 206.32C130.504 206.613 130.571 206.947 130.491 207.32C129.797 210.387 129.064 213.187 128.291 215.72C127.544 218.227 126.744 220.467 125.891 222.44C125.277 223.88 124.597 225.293 123.851 226.68C123.104 228.067 122.277 229.32 121.371 230.44C120.491 231.56 119.531 232.453 118.491 233.12C117.477 233.787 116.384 234.12 115.211 234.12ZM139.003 219C137.296 219 135.923 218.467 134.883 217.4C133.843 216.333 133.323 215.027 133.323 213.48C133.323 211.827 133.843 210.493 134.883 209.48C135.923 208.467 137.296 207.96 139.003 207.96C140.123 207.96 141.109 208.213 141.963 208.72C142.816 209.2 143.469 209.853 143.923 210.68C144.403 211.507 144.643 212.44 144.643 213.48C144.643 214.52 144.403 215.453 143.923 216.28C143.443 217.107 142.776 217.773 141.923 218.28C141.069 218.76 140.096 219 139.003 219ZM139.003 216.6C140.069 216.6 140.883 216.307 141.443 215.72C142.003 215.133 142.283 214.387 142.283 213.48C142.283 212.493 141.989 211.733 141.403 211.2C140.816 210.64 140.016 210.36 139.003 210.36C137.936 210.36 137.123 210.653 136.563 211.24C136.003 211.8 135.723 212.547 135.723 213.48C135.723 214.44 136.016 215.2 136.603 215.76C137.189 216.32 137.989 216.6 139.003 216.6ZM139.003 233.72C138.576 233.72 138.269 233.6 138.083 233.36C137.896 233.147 137.789 232.893 137.763 232.6C137.683 230.627 137.643 228.6 137.643 226.52C137.643 224.76 137.683 223.12 137.763 221.6C137.789 221.173 137.936 220.88 138.203 220.72C138.496 220.533 138.776 220.467 139.043 220.52C139.363 220.52 139.629 220.64 139.843 220.88C140.056 221.12 140.163 221.427 140.163 221.8C140.109 222.067 140.069 222.64 140.043 223.52C140.016 224.4 140.003 225.373 140.003 226.44C140.003 227.293 140.003 228.147 140.003 229C140.029 229.827 140.056 230.547 140.083 231.16C140.109 231.773 140.136 232.187 140.163 232.4C140.163 232.853 140.043 233.187 139.803 233.4C139.563 233.613 139.296 233.72 139.003 233.72ZM161.094 234.44C160.107 234.44 159.094 234.347 158.054 234.16C157.014 233.973 155.974 233.733 154.934 233.44C154.401 233.28 154.134 232.947 154.134 232.44C154.134 231.613 154.481 231.2 155.174 231.2C155.334 231.2 155.467 231.213 155.574 231.24C156.881 231.587 157.921 231.84 158.694 232C159.494 232.187 160.227 232.28 160.894 232.28C161.721 232.28 162.507 232.147 163.254 231.88C164.001 231.64 164.614 231.307 165.094 230.88C165.601 230.427 165.854 229.907 165.854 229.32C165.854 228.707 165.561 228.24 164.974 227.92C164.387 227.573 163.601 227.307 162.614 227.12C161.627 226.907 160.507 226.733 159.254 226.6C158.027 226.44 156.761 226.267 155.454 226.08C152.867 225.627 150.881 224.8 149.494 223.6C148.134 222.373 147.454 220.507 147.454 218C147.454 216.427 147.801 215.027 148.494 213.8C149.214 212.573 150.174 211.547 151.374 210.72C152.574 209.867 153.934 209.227 155.454 208.8C157.001 208.347 158.601 208.12 160.254 208.12C161.721 208.12 163.161 208.307 164.574 208.68C165.987 209.053 167.254 209.627 168.374 210.4C168.747 210.667 168.934 210.96 168.934 211.28C168.934 211.52 168.854 211.76 168.694 212C168.561 212.187 168.401 212.32 168.214 212.4C168.054 212.453 167.894 212.48 167.734 212.48C167.521 212.48 167.307 212.413 167.094 212.28C166.187 211.667 165.147 211.24 163.974 211C162.801 210.733 161.601 210.6 160.374 210.6C158.454 210.6 156.681 210.88 155.054 211.44C153.427 212 152.121 212.84 151.134 213.96C150.174 215.053 149.694 216.4 149.694 218C149.694 219.813 150.201 221.16 151.214 222.04C152.254 222.893 153.787 223.493 155.814 223.84C157.281 224.08 158.734 224.293 160.174 224.48C161.641 224.64 162.974 224.88 164.174 225.2C165.374 225.52 166.334 226 167.054 226.64C167.801 227.253 168.174 228.133 168.174 229.28C168.174 230.4 167.854 231.347 167.214 232.12C166.574 232.893 165.707 233.467 164.614 233.84C163.547 234.24 162.374 234.44 161.094 234.44ZM177.401 219C175.694 219 174.321 218.467 173.281 217.4C172.241 216.333 171.721 215.027 171.721 213.48C171.721 211.827 172.241 210.493 173.281 209.48C174.321 208.467 175.694 207.96 177.401 207.96C178.521 207.96 179.508 208.213 180.361 208.72C181.214 209.2 181.868 209.853 182.321 210.68C182.801 211.507 183.041 212.44 183.041 213.48C183.041 214.52 182.801 215.453 182.321 216.28C181.841 217.107 181.174 217.773 180.321 218.28C179.468 218.76 178.494 219 177.401 219ZM177.401 216.6C178.468 216.6 179.281 216.307 179.841 215.72C180.401 215.133 180.681 214.387 180.681 213.48C180.681 212.493 180.388 211.733 179.801 211.2C179.214 210.64 178.414 210.36 177.401 210.36C176.334 210.36 175.521 210.653 174.961 211.24C174.401 211.8 174.121 212.547 174.121 213.48C174.121 214.44 174.414 215.2 175.001 215.76C175.588 216.32 176.388 216.6 177.401 216.6ZM177.401 233.72C176.974 233.72 176.668 233.6 176.481 233.36C176.294 233.147 176.188 232.893 176.161 232.6C176.081 230.627 176.041 228.6 176.041 226.52C176.041 224.76 176.081 223.12 176.161 221.6C176.188 221.173 176.334 220.88 176.601 220.72C176.894 220.533 177.174 220.467 177.441 220.52C177.761 220.52 178.028 220.64 178.241 220.88C178.454 221.12 178.561 221.427 178.561 221.8C178.508 222.067 178.468 222.64 178.441 223.52C178.414 224.4 178.401 225.373 178.401 226.44C178.401 227.293 178.401 228.147 178.401 229C178.428 229.827 178.454 230.547 178.481 231.16C178.508 231.773 178.534 232.187 178.561 232.4C178.561 232.853 178.441 233.187 178.201 233.4C177.961 233.613 177.694 233.72 177.401 233.72ZM199.012 234.48C196.426 234.48 194.172 233.947 192.252 232.88C190.359 231.813 188.879 230.347 187.812 228.48C186.772 226.587 186.252 224.4 186.252 221.92C186.252 219.36 186.772 217.147 187.812 215.28C188.852 213.387 190.319 211.92 192.212 210.88C194.132 209.84 196.399 209.32 199.012 209.32C201.679 209.32 203.959 209.84 205.852 210.88C207.772 211.893 209.239 213.347 210.252 215.24C211.266 217.107 211.772 219.333 211.772 221.92C211.772 224.453 211.252 226.667 210.212 228.56C209.172 230.453 207.692 231.907 205.772 232.92C203.879 233.96 201.626 234.48 199.012 234.48ZM199.012 231.96C202.292 231.96 204.812 231.067 206.572 229.28C208.359 227.493 209.252 225.04 209.252 221.92C209.252 218.667 208.332 216.173 206.492 214.44C204.652 212.707 202.159 211.84 199.012 211.84C195.866 211.84 193.372 212.733 191.532 214.52C189.692 216.307 188.772 218.773 188.772 221.92C188.772 224 189.212 225.787 190.092 227.28C190.972 228.773 192.186 229.933 193.732 230.76C195.279 231.56 197.039 231.96 199.012 231.96ZM237.923 233.96C237.577 233.96 237.27 233.84 237.003 233.6C236.763 233.387 236.643 233.107 236.643 232.76C236.643 232.653 236.67 232.52 236.723 232.36C237.177 230.947 237.537 229.467 237.803 227.92C238.097 226.347 238.243 224.84 238.243 223.4C238.243 220.547 237.643 218.28 236.443 216.6C235.27 214.893 233.403 213.947 230.843 213.76C228.923 213.68 227.27 214.16 225.883 215.2C224.497 216.24 223.337 217.613 222.403 219.32C221.577 220.893 220.95 222.68 220.523 224.68C220.123 226.68 219.923 228.627 219.923 230.52C219.923 230.787 219.923 231.053 219.923 231.32C219.923 231.613 219.937 231.893 219.963 232.16C219.963 232.64 219.817 232.973 219.523 233.16C219.257 233.373 218.977 233.48 218.683 233.48C218.017 233.48 217.643 233.093 217.563 232.32C217.377 230.64 217.203 228.773 217.043 226.72C216.91 224.64 216.79 222.56 216.683 220.48C216.603 218.373 216.563 216.44 216.563 214.68C216.563 214.173 216.563 213.693 216.563 213.24C216.563 212.787 216.577 212.36 216.603 211.96C216.603 211.507 216.737 211.187 217.003 211C217.297 210.813 217.577 210.747 217.843 210.8C218.163 210.8 218.43 210.907 218.643 211.12C218.883 211.333 219.003 211.627 219.003 212C219.03 213.04 219.043 213.947 219.043 214.72C219.043 215.493 219.043 216.293 219.043 217.12C219.07 217.947 219.083 219 219.083 220.28C219.643 218.467 220.47 216.867 221.563 215.48C222.683 214.093 223.99 213.013 225.483 212.24C226.977 211.44 228.577 211.04 230.283 211.04C232.497 211.04 234.377 211.533 235.923 212.52C237.497 213.507 238.697 214.893 239.523 216.68C240.35 218.44 240.763 220.48 240.763 222.8C240.763 224.587 240.603 226.32 240.283 228C239.963 229.68 239.537 231.387 239.003 233.12C238.923 233.413 238.777 233.627 238.563 233.76C238.377 233.893 238.163 233.96 237.923 233.96Z" fill="white"/>
<path d="M86.9434 190.2C86.5701 190.2 86.3034 190.147 86.1434 190.04C85.0234 189.613 84.4634 188.893 84.4634 187.88C84.4634 187.773 84.4634 187.64 84.4634 187.48C84.5168 187.32 84.5701 187.16 84.6234 187C86.1701 182.413 87.4501 177.667 88.4634 172.76C89.4768 167.853 89.9834 163.213 89.9834 158.84C89.9834 158.36 89.9834 157.88 89.9834 157.4C89.9834 156.92 89.9568 156.467 89.9034 156.04C89.7434 153 89.1834 150.2 88.2234 147.64C87.3168 145.08 86.0368 142.973 84.3834 141.32C82.7834 139.613 80.8101 138.627 78.4634 138.36C76.3301 138.147 74.3568 138.547 72.5434 139.56C70.7834 140.573 69.2901 142.013 68.0634 143.88C66.8901 145.693 66.0634 147.773 65.5834 150.12C65.4234 150.867 65.1034 151.427 64.6234 151.8C64.1968 152.173 63.7434 152.333 63.2634 152.28C62.6768 152.28 62.1434 152.04 61.6634 151.56C61.2368 151.08 60.9701 150.493 60.8634 149.8C60.2768 147.24 59.3168 144.947 57.9834 142.92C56.7034 140.84 55.1568 139.213 53.3434 138.04C51.5834 136.813 49.6101 136.2 47.4234 136.2C44.8634 136.2 42.6768 137.08 40.8634 138.84C39.1034 140.6 37.7168 142.867 36.7034 145.64C35.6901 148.36 35.0234 151.187 34.7034 154.12C34.5968 155.027 34.5168 155.96 34.4634 156.92C34.4101 157.827 34.3834 158.787 34.3834 159.8C34.3834 164.013 34.8101 168.467 35.6634 173.16C36.5701 177.853 37.6901 182.493 39.0234 187.08C39.0768 187.24 39.1034 187.373 39.1034 187.48C39.1568 187.64 39.1834 187.773 39.1834 187.88C39.1834 188.467 38.9968 188.947 38.6234 189.32C38.2501 189.693 37.8501 189.933 37.4234 190.04C37.3168 190.093 37.1834 190.12 37.0234 190.12C36.8634 190.12 36.7301 190.12 36.6234 190.12C35.6101 190.12 34.8901 189.56 34.4634 188.44C32.9701 183.693 31.7434 178.813 30.7834 173.8C29.8768 168.733 29.4234 163.88 29.4234 159.24C29.4234 158.067 29.4501 156.92 29.5034 155.8C29.6101 154.68 29.7168 153.613 29.8234 152.6C30.1968 149.187 31.0234 145.96 32.3034 142.92C33.6368 139.827 35.3701 137.24 37.5034 135.16C39.6901 133.08 42.1968 131.853 45.0234 131.48C45.9301 131.32 46.8368 131.24 47.7434 131.24C51.2101 131.24 54.3568 132.253 57.1834 134.28C60.0634 136.307 62.2501 138.893 63.7434 142.04C65.1301 139.107 67.0768 136.867 69.5834 135.32C72.0901 133.72 74.7301 132.92 77.5034 132.92C80.2234 132.92 82.8368 133.72 85.3434 135.32C87.9034 136.867 90.0368 139.293 91.7434 142.6C93.5034 145.853 94.5168 150.093 94.7834 155.32C94.8368 155.8 94.8634 156.307 94.8634 156.84C94.8634 157.32 94.8634 157.827 94.8634 158.36C94.8634 163.107 94.3301 168.147 93.2634 173.48C92.1968 178.813 90.8101 183.853 89.1034 188.6C88.9434 189.133 88.6501 189.533 88.2234 189.8C87.7968 190.067 87.3701 190.2 86.9434 190.2ZM129.947 191.96C124.773 191.96 120.267 190.893 116.427 188.76C112.64 186.627 109.68 183.693 107.547 179.96C105.467 176.173 104.427 171.8 104.427 166.84C104.427 161.72 105.467 157.293 107.547 153.56C109.627 149.773 112.56 146.84 116.347 144.76C120.187 142.68 124.72 141.64 129.947 141.64C135.28 141.64 139.84 142.68 143.627 144.76C147.467 146.787 150.4 149.693 152.427 153.48C154.453 157.213 155.467 161.667 155.467 166.84C155.467 171.907 154.427 176.333 152.347 180.12C150.267 183.907 147.307 186.813 143.467 188.84C139.68 190.92 135.173 191.96 129.947 191.96ZM129.947 186.92C136.507 186.92 141.547 185.133 145.067 181.56C148.64 177.987 150.427 173.08 150.427 166.84C150.427 160.333 148.587 155.347 144.907 151.88C141.227 148.413 136.24 146.68 129.947 146.68C123.653 146.68 118.667 148.467 114.987 152.04C111.307 155.613 109.467 160.547 109.467 166.84C109.467 171 110.347 174.573 112.107 177.56C113.867 180.547 116.293 182.867 119.387 184.52C122.48 186.12 126 186.92 129.947 186.92ZM210.088 190.44C209.662 190.44 209.235 190.307 208.808 190.04C208.382 189.827 208.062 189.453 207.848 188.92C206.995 186.947 206.328 184.787 205.848 182.44C205.368 180.093 204.995 177.853 204.728 175.72C203.555 178.387 201.982 180.813 200.008 183C198.035 185.133 195.795 186.84 193.288 188.12C190.782 189.4 188.088 190.12 185.208 190.28C179.768 190.547 175.315 189.667 171.848 187.64C168.435 185.667 165.902 182.867 164.248 179.24C162.648 175.56 161.848 171.427 161.848 166.84C161.848 163.533 162.222 160.12 162.968 156.6C163.715 153.027 164.782 149.453 166.168 145.88C166.542 144.867 167.262 144.36 168.328 144.36C169.075 144.36 169.688 144.573 170.168 145C170.648 145.427 170.888 145.96 170.888 146.6C170.888 146.867 170.808 147.213 170.648 147.64C169.315 151.053 168.275 154.413 167.528 157.72C166.835 161.027 166.488 164.173 166.488 167.16C166.488 170.733 167.075 173.933 168.248 176.76C169.422 179.587 171.262 181.8 173.768 183.4C176.275 184.947 179.528 185.64 183.528 185.48C187.475 185.32 190.968 184.013 194.008 181.56C197.102 179.107 199.528 175.747 201.288 171.48C203.048 167.16 203.928 162.253 203.928 156.76C203.928 155.8 203.875 154.813 203.768 153.8C203.715 152.787 203.635 151.773 203.528 150.76C203.422 149.853 203.635 149.24 204.168 148.92C204.755 148.6 205.342 148.44 205.928 148.44C206.675 148.493 207.288 148.76 207.768 149.24C208.302 149.667 208.568 150.253 208.568 151C208.568 153.133 208.622 155.56 208.728 158.28C208.888 161 209.075 163.827 209.288 166.76C209.555 169.693 209.848 172.52 210.168 175.24C210.488 177.96 210.862 180.387 211.288 182.52C211.715 184.6 212.195 186.173 212.728 187.24C212.835 187.4 212.888 187.56 212.888 187.72C212.888 187.88 212.888 188.04 212.888 188.2C212.888 188.893 212.595 189.427 212.008 189.8C211.422 190.227 210.782 190.44 210.088 190.44ZM245.75 191.88C243.777 191.88 241.75 191.693 239.67 191.32C237.59 190.947 235.51 190.467 233.43 189.88C232.364 189.56 231.83 188.893 231.83 187.88C231.83 186.227 232.524 185.4 233.91 185.4C234.23 185.4 234.497 185.427 234.71 185.48C237.324 186.173 239.404 186.68 240.95 187C242.55 187.373 244.017 187.56 245.35 187.56C247.004 187.56 248.577 187.293 250.07 186.76C251.564 186.28 252.79 185.613 253.75 184.76C254.764 183.853 255.27 182.813 255.27 181.64C255.27 180.413 254.684 179.48 253.51 178.84C252.337 178.147 250.764 177.613 248.79 177.24C246.817 176.813 244.577 176.467 242.07 176.2C239.617 175.88 237.084 175.533 234.47 175.16C229.297 174.253 225.324 172.6 222.55 170.2C219.83 167.747 218.47 164.013 218.47 159C218.47 155.853 219.164 153.053 220.55 150.6C221.99 148.147 223.91 146.093 226.31 144.44C228.71 142.733 231.43 141.453 234.47 140.6C237.564 139.693 240.764 139.24 244.07 139.24C247.004 139.24 249.884 139.613 252.71 140.36C255.537 141.107 258.07 142.253 260.31 143.8C261.057 144.333 261.43 144.92 261.43 145.56C261.43 146.04 261.27 146.52 260.95 147C260.684 147.373 260.364 147.64 259.99 147.8C259.67 147.907 259.35 147.96 259.03 147.96C258.604 147.96 258.177 147.827 257.75 147.56C255.937 146.333 253.857 145.48 251.51 145C249.164 144.467 246.764 144.2 244.31 144.2C240.47 144.2 236.924 144.76 233.67 145.88C230.417 147 227.804 148.68 225.83 150.92C223.91 153.107 222.95 155.8 222.95 159C222.95 162.627 223.964 165.32 225.99 167.08C228.07 168.787 231.137 169.987 235.19 170.68C238.124 171.16 241.03 171.587 243.91 171.96C246.844 172.28 249.51 172.76 251.91 173.4C254.31 174.04 256.23 175 257.67 176.28C259.164 177.507 259.91 179.267 259.91 181.56C259.91 183.8 259.27 185.693 257.99 187.24C256.71 188.787 254.977 189.933 252.79 190.68C250.657 191.48 248.31 191.88 245.75 191.88ZM301.805 190.04C300.525 190.413 299.245 190.68 297.965 190.84C296.685 191.053 295.378 191.16 294.045 191.16C290.578 191.16 287.218 190.547 283.965 189.32C280.765 188.093 277.885 186.36 275.325 184.12C272.765 181.88 270.738 179.24 269.245 176.2C267.751 173.16 267.005 169.827 267.005 166.2C267.005 161.133 268.125 156.653 270.365 152.76C272.658 148.813 275.751 145.72 279.645 143.48C283.591 141.24 288.018 140.12 292.925 140.12C296.018 140.12 298.978 140.733 301.805 141.96C304.685 143.133 307.245 144.787 309.485 146.92C311.725 149.053 313.485 151.533 314.765 154.36C316.098 157.187 316.765 160.2 316.765 163.4C316.765 166.067 315.938 168.093 314.285 169.48C312.631 170.813 310.418 171.72 307.645 172.2C304.871 172.68 301.831 172.92 298.525 172.92C296.285 172.92 293.778 172.84 291.005 172.68C288.285 172.52 285.591 172.307 282.925 172.04C280.311 171.72 278.045 171.427 276.125 171.16C275.378 171.053 274.845 170.787 274.525 170.36C274.205 169.88 274.045 169.373 274.045 168.84C274.045 168.093 274.285 167.48 274.765 167C275.298 166.467 275.991 166.253 276.845 166.36C277.805 166.573 279.298 166.813 281.325 167.08C283.351 167.293 285.565 167.507 287.965 167.72C290.418 167.88 292.738 168.013 294.925 168.12C297.165 168.227 298.978 168.28 300.365 168.28C304.311 168.173 307.271 167.693 309.245 166.84C311.271 165.933 312.285 164.467 312.285 162.44C312.285 160.253 311.725 158.12 310.605 156.04C309.485 153.96 307.965 152.093 306.045 150.44C304.178 148.733 302.098 147.4 299.805 146.44C297.565 145.427 295.271 144.92 292.925 144.92C289.938 144.813 287.138 145.347 284.525 146.52C281.911 147.64 279.618 149.213 277.645 151.24C275.725 153.213 274.205 155.533 273.085 158.2C272.018 160.813 271.485 163.56 271.485 166.44C271.485 169.213 272.151 171.827 273.485 174.28C274.818 176.68 276.605 178.787 278.845 180.6C281.085 182.413 283.565 183.827 286.285 184.84C289.005 185.853 291.751 186.36 294.525 186.36C296.391 186.36 298.285 186.067 300.205 185.48C300.365 185.427 300.605 185.4 300.925 185.4C301.565 185.4 302.125 185.613 302.605 186.04C303.138 186.52 303.405 187.133 303.405 187.88C303.405 188.307 303.271 188.733 303.005 189.16C302.791 189.587 302.391 189.88 301.805 190.04Z" fill="white"/>
</svg>
