<svg width="597" height="603" viewBox="0 0 597 603" fill="none" xmlns="http://www.w3.org/2000/svg">
<path d="M427.269 184.469C431.622 185.565 437.263 190.919 438.244 194.934C438.612 196.516 438.796 196.516 443.394 196.516C447.441 196.455 448.544 196.699 451.242 198.159C454.614 199.984 457.25 202.844 459.396 206.92C460.377 208.745 460.807 210.996 461.052 215.134C461.604 224.199 459.887 229.432 454.553 234.786C449.28 240.079 444.804 242.269 438.918 242.33C436.343 242.33 435.424 242.513 435.669 243.06C436.282 244.46 441.616 257.723 442.904 261.191C443.639 263.016 445.969 267.701 448.115 271.534C453.327 280.904 458.048 291.49 462.217 303.05C467.183 317.044 468.777 325.258 469.819 342.841C470.739 359.755 469.022 369.125 461.481 387.742C459.09 393.705 455.534 400.702 454.124 402.405C452.897 403.744 452.959 403.866 455.84 405.082C460.377 406.908 460.929 407.09 465.895 408.003C483.308 411.41 498.39 411.653 510.223 408.733C517.703 406.908 519.665 405.873 523.651 401.432C529.23 395.165 530.088 388.716 526.348 380.867C524.018 375.817 518.378 369.794 512.737 366.144C507.464 362.736 498.39 358.234 495.08 357.321C491.83 356.47 491.585 355.253 494.773 355.861C505.441 357.747 515.68 361.702 521.934 366.387C526.103 369.551 531.744 376.426 533.828 381.05C535.238 384.153 535.729 386.1 535.913 390.176C536.158 394.922 535.974 395.652 534.196 399.607C530.701 407.394 522.363 414.269 512.737 417.372C501.211 421.023 472.824 420.84 461.358 417.007C455.472 415 448.238 412.14 445.969 410.802C444.866 410.132 443.823 409.646 443.762 409.767C443.639 409.889 442.291 411.653 440.758 413.722C439.225 415.791 437.324 417.92 436.589 418.407C435.424 419.137 430.703 419.38 411.574 419.684C390.728 420.049 387.723 419.989 385.7 419.137C382.144 417.616 381.838 416.399 384.106 413.053C387.356 408.124 387.172 408.185 401.825 408.672C408.876 408.855 414.639 408.915 414.639 408.794C414.639 408.611 413.229 407.82 411.574 406.968C402.316 402.344 398.208 399.12 393.058 392.306C388.459 386.221 387.601 384.518 385.639 377.703C382.205 365.474 381.163 355.983 381.347 336.818L381.47 322.155L379.753 322.824C378.22 323.372 377.668 323.25 375.768 321.972C370.985 318.808 371.231 311.386 376.32 301.408C379.569 294.958 380.243 292.281 380.857 283.885C381.47 275.246 381.041 271.717 378.649 266.545C375.216 258.757 373.377 256.385 368.84 253.708C358.294 247.502 355.842 245.798 352.653 242.513C347.013 236.672 338 221.461 338 217.689C338 216.229 341.004 213.248 343.273 212.518C345.051 211.909 345.664 211.97 346.89 212.761C348.852 214.039 352.899 213.978 356.7 212.578C377.607 204.912 381.347 204 390.912 204C399.434 204 400.967 203.695 401.457 201.627C402.193 198.646 405.994 192.683 408.753 190.128C414.149 185.199 421.445 182.948 427.269 184.469ZM415.436 187.207C411.39 189.093 407.466 192.987 404.952 197.55C401.948 203.087 401.948 203.27 404.645 203.695C411.696 204.791 414.639 205.582 417.705 207.224C420.832 208.928 421.077 208.989 421.69 207.954C424.081 203.695 431.132 198.402 435.424 197.55C437.018 197.185 437.263 196.942 436.956 195.847C435.853 192.257 432.726 188.667 429.047 186.781C426.104 185.199 419.299 185.443 415.436 187.207ZM433.216 199.741C426.472 202.661 423.1 206.616 419.483 215.803C418.563 218.176 417.521 220.184 417.153 220.305C416.111 220.67 416.356 219.454 418.256 215.073C419.483 212.092 419.789 210.814 419.299 210.388C417.582 208.867 412.125 206.859 407.65 206.068C402.377 205.156 388.95 205.399 382.757 206.555C377.239 207.528 366.939 210.571 360.44 213.187C353.818 215.803 348.668 216.351 347.197 214.647C346.216 213.491 345.173 213.491 342.844 214.647C339.104 216.594 339.288 219.94 343.457 226.815C350.753 238.801 356.516 245.068 363.444 248.536C368.778 251.213 374.419 255.472 376.626 258.514C377.668 259.974 379.385 263.138 380.489 265.572C382.451 270.013 382.451 270.013 382.451 280.661C382.451 292.342 381.838 295.263 377.791 302.077C374.235 308.1 373.131 316.253 375.461 319.234C376.994 321.12 379.262 321.303 380.734 319.599C383.248 316.74 383.432 317.652 383.002 331.889C382.696 342.598 382.819 347.648 383.616 355.8C384.781 367.299 385.148 369.186 387.478 377.095C389.379 383.788 390.299 385.613 394.59 391.271C398.882 396.93 402.009 399.607 408.508 403.257C414.946 406.847 417.827 408.976 417.337 409.767C417.03 410.193 412.248 410.254 403.174 409.95L389.44 409.524L386.681 412.444C385.21 414.087 383.983 415.73 383.983 416.095C383.983 417.859 388.091 418.163 411.451 418.163H434.994L437.263 415.851C438.489 414.635 440.39 412.323 441.432 410.68L443.455 407.82L446.521 409.341C452.591 412.383 457.312 413.904 469.513 416.642C477.912 418.528 496.551 418.711 507.464 416.947C519.297 415.06 530.211 406.847 533.644 397.234C536.403 389.324 534.257 381.719 526.532 372.532C523.344 368.699 518.807 365.413 513.044 362.797C505.502 359.268 504.521 359.329 510.469 362.858C520.646 368.942 526.839 376 529.353 384.214C530.272 387.256 530.579 389.324 530.334 391.454C529.659 396.747 524.08 404.656 518.991 407.394C512.921 410.68 500.046 412.688 487.906 412.323C473.682 411.897 454.43 407.516 452.346 404.17C452.162 403.866 453.02 401.858 454.246 399.789C460.623 389.02 466.202 371.863 467.735 358.112C469.022 346.552 468.47 337.183 465.589 319.599C463.933 309.56 454.43 285.65 446.766 272.204C444.559 268.37 441.555 262.043 440.022 258.149C438.489 254.316 436.711 249.874 436.037 248.353C435.362 246.832 434.749 244.642 434.688 243.486L434.565 241.417L438.796 240.992C444.743 240.444 448.115 238.984 451.978 235.394C456.208 231.439 457.986 228.641 459.151 223.895C462.033 212.883 456.944 201.383 447.87 198.463C445.111 197.55 436.466 198.341 433.216 199.741Z" fill="white" stroke="white" stroke-width="2"/>
<path d="M263 379.25V235.5L187.5 427.5H181L108.25 241.75V379.25C108.25 392.417 108.583 402.167 109.25 408.5L132.5 411.5C133.5 414.5 133.5 417.5 132.5 420.5C118.167 420.167 108 420 102 420C92 420 81.9167 420.25 71.75 420.75C71.0833 417.083 71.0833 414 71.75 411.5L94.5 409V261.75C94.5 248.583 94.1667 238.833 93.5 232.5L72.75 229.5C71.75 226.667 71.75 223.833 72.75 221H127.75L190.5 385.5L254.75 221C258.583 221.167 264.417 221.25 272.25 221.25C273.917 221.25 287 221 311.5 220.5C312.5 223.5 312.5 226.5 311.5 229.5L290.75 232.5C290.083 238.833 289.75 248.583 289.75 261.75V409L310 411.5C310.667 414 310.667 417.083 310 420.75C299.5 420.25 288.083 420 275.75 420C266.75 420 255.25 420.167 241.25 420.5C240.25 416.333 240.25 413.333 241.25 411.5L262 408.5C262.667 402.167 263 392.417 263 379.25Z" fill="white"/>
<path d="M194.83 305.26H195C196.36 299.933 198.57 292.963 201.63 284.35L232.57 198.16L218.8 196.46C218.347 194.76 218.347 192.663 218.8 190.17C225.033 190.623 231.04 190.85 236.82 190.85C241.807 190.85 247.927 190.68 255.18 190.34C255.86 192.38 255.86 194.42 255.18 196.46L243.96 198.5C242.147 201.22 239.88 206.263 237.16 213.63L193.3 331.1H187.35L137.03 198.16L123.26 196.46C122.807 194.76 122.807 192.663 123.26 190.17C129.493 190.623 137.54 190.85 147.4 190.85C156.24 190.85 164.343 190.68 171.71 190.34C172.39 192.38 172.39 194.42 171.71 196.46L157.6 198.5L188.71 284.35C191.09 291.263 193.13 298.233 194.83 305.26Z" fill="white"/>
<path d="M298.5 2.5C461.953 2.5 594.5 136.343 594.5 301.5C594.5 466.657 461.953 600.5 298.5 600.5C135.047 600.5 2.5 466.657 2.5 301.5C2.5 136.343 135.047 2.5 298.5 2.5Z" stroke="white" stroke-width="5"/>
</svg>
