<svg id="visual" viewBox="0 0 900 150" width="900" height="150" xmlns="http://www.w3.org/2000/svg" xmlns:xlink="http://www.w3.org/1999/xlink" version="1.1"><path d="M0 28L100 19L200 31L300 27L400 25L500 30L600 16L700 25L800 13L900 21L900 0L800 0L700 0L600 0L500 0L400 0L300 0L200 0L100 0L0 0Z" fill="#232124"></path><path d="M0 69L100 51L200 70L300 51L400 61L500 67L600 57L700 61L800 57L900 66L900 19L800 11L700 23L600 14L500 28L400 23L300 25L200 29L100 17L0 26Z" fill="#2d282f"></path><path d="M0 90L100 75L200 82L300 73L400 81L500 85L600 78L700 79L800 75L900 76L900 64L800 55L700 59L600 55L500 65L400 59L300 49L200 68L100 49L0 67Z" fill="#37303b"></path><path d="M0 115L100 103L200 114L300 100L400 115L500 109L600 102L700 102L800 102L900 115L900 74L800 73L700 77L600 76L500 83L400 79L300 71L200 80L100 73L0 88Z" fill="#413848"></path><path d="M0 151L100 151L200 151L300 151L400 151L500 151L600 151L700 151L800 151L900 151L900 113L800 100L700 100L600 100L500 107L400 113L300 98L200 112L100 101L0 113Z" fill="#4a4055"></path></svg>