<svg id="visual" viewBox="0 0 900 150" width="900" height="150" xmlns="http://www.w3.org/2000/svg" xmlns:xlink="http://www.w3.org/1999/xlink" version="1.1"><path d="M0 54L82 55L164 66L245 28L327 54L409 69L491 52L573 27L655 49L736 42L818 30L900 37L900 0L818 0L736 0L655 0L573 0L491 0L409 0L327 0L245 0L164 0L82 0L0 0Z" fill="#4a4055"></path><path d="M0 75L82 72L164 81L245 48L327 75L409 88L491 64L573 36L655 64L736 67L818 54L900 58L900 35L818 28L736 40L655 47L573 25L491 50L409 67L327 52L245 26L164 64L82 53L0 52Z" fill="#413848"></path><path d="M0 100L82 97L164 104L245 78L327 86L409 104L491 94L573 69L655 81L736 96L818 66L900 86L900 56L818 52L736 65L655 62L573 34L491 62L409 86L327 73L245 46L164 79L82 70L0 73Z" fill="#37303b"></path><path d="M0 126L82 130L164 129L245 112L327 111L409 130L491 123L573 86L655 120L736 111L818 86L900 108L900 84L818 64L736 94L655 79L573 67L491 92L409 102L327 84L245 76L164 102L82 95L0 98Z" fill="#2d282f"></path><path d="M0 151L82 151L164 151L245 151L327 151L409 151L491 151L573 151L655 151L736 151L818 151L900 151L900 106L818 84L736 109L655 118L573 84L491 121L409 128L327 109L245 110L164 127L82 128L0 124Z" fill="#232124"></path></svg>